
<svg viewBox="0 0 289 200" fill="none" xmlns="http://www.w3.org/2000/svg">
<path d="M59.6465 170.084C109.842 196.639 191.217 196.639 241.354 170.084C291.549 143.53 291.549 100.47 241.354 73.9156C191.158 47.3615 109.783 47.3615 59.6465 73.9156C9.45117 100.47 9.45117 143.53 59.6465 170.084Z" fill="#F5F5F5"/>
<path d="M22.5865 145.303C22.5865 145.303 24.9949 138.575 25.5453 131.293C26.0958 124.01 22.5865 112.774 16.1182 109.029C9.6499 105.284 6.20932 109.931 8.34248 113.884C10.4756 117.907 17.7697 129.142 17.9073 138.852L22.5865 145.303Z" fill="#27DEBF"/>
<path d="M20.3156 145.095C20.0404 145.025 19.9716 144.887 19.9716 144.678V144.609C20.5221 141.28 21.279 136.772 20.2468 128.518C19.1458 119.224 16.1181 114.924 13.3657 111.942C13.228 111.803 13.228 111.595 13.3657 111.456C13.5033 111.318 13.7097 111.318 13.8473 111.456C16.7374 114.508 19.8339 118.947 20.9349 128.449C21.8983 136.772 21.1414 141.349 20.5909 144.748V144.817C20.6597 145.025 20.5221 145.095 20.3156 145.095Z" fill="white"/>
<path d="M18.9395 149.464C18.2514 146.066 15.7053 142.182 10.8885 139.893C6.07173 137.604 1.0485 136.286 0.153946 133.373C-0.740603 130.46 2.2871 127.062 8.61776 128.518C14.9484 129.905 21.6919 139.338 21.2791 145.719L18.9395 149.464Z" fill="#27DEBF"/>
<path d="M20.3156 147.591C20.178 147.591 19.9716 147.453 19.9716 147.314C18.6642 138.714 11.439 132.125 5.7276 131.639C5.52117 131.639 5.38354 131.431 5.38354 131.293C5.38354 131.084 5.58998 130.946 5.7276 130.946C11.6454 131.501 19.2147 138.298 20.5909 147.245C20.7285 147.383 20.5909 147.522 20.3156 147.591C20.3844 147.591 20.3844 147.591 20.3156 147.591Z" fill="white"/>
<path d="M254.757 83.575C254.757 83.575 251.522 76.4313 252.073 70.2585C252.623 64.0164 254.825 58.1211 260.124 53.9597C265.422 49.7982 269.482 51.6709 270.377 53.1967C271.271 54.7226 271.271 57.7049 267.349 60.8953C263.427 64.1551 259.16 72.9634 260.33 81.8411L258.541 87.0429L254.757 83.575Z" fill="#27DEBF"/>
<path d="M256.683 84.2686C256.546 84.2686 256.477 84.1993 256.408 84.0605C255.101 81.5637 254.894 71.2295 257.027 65.4729C259.642 58.4679 264.39 54.5145 267.968 53.1274C268.175 53.058 268.312 53.1274 268.381 53.3354C268.45 53.5435 268.381 53.6822 268.175 53.7516C264.734 55.0694 260.193 58.884 257.647 65.681C255.582 71.1602 255.72 81.3556 256.958 83.6444C257.027 83.7831 256.958 83.9912 256.821 84.1299C256.821 84.1993 256.752 84.2686 256.683 84.2686Z" fill="white"/>
<path d="M269.964 98.4868C270.514 94.9496 270.583 92.7302 273.886 90.5801C277.189 88.43 280.148 86.8348 280.354 83.7138C280.561 80.5927 278.565 77.0555 278.634 74.3506C278.772 71.6457 280.423 70.3279 283.864 67.9698C287.373 65.6116 290.883 61.5196 287.511 58.6066C284.07 55.6936 278.978 58.3985 276.639 60.4099C274.299 62.4212 272.441 63.1841 268.863 62.2131C265.285 61.2421 261.844 63.739 262.67 68.3165C263.496 72.8941 263.083 74.9748 260.193 74.8361C257.303 74.6974 253.105 77.6797 256.477 84.6154L269.964 98.4868Z" fill="#27DEBF"/>
<path d="M262.67 91.343C262.463 91.343 262.326 91.1349 262.326 90.9269C263.977 77.0555 277.602 62.2131 283.795 60.0631C284.001 59.9937 284.139 60.0631 284.208 60.2711C284.277 60.4792 284.208 60.6179 284.001 60.6873C277.946 62.768 264.597 77.4023 263.014 90.9962C263.014 91.2043 262.876 91.343 262.67 91.343Z" fill="white"/>
<path d="M268.588 76.0151C268.45 76.0151 268.312 75.9458 268.243 75.7377C266.798 70.9521 266.317 66.2358 266.317 66.2358C266.317 66.0277 266.454 65.889 266.592 65.889C266.798 65.889 266.936 66.0277 266.936 66.1665C266.936 66.2358 267.418 70.8134 268.863 75.5296C268.932 75.7377 268.794 75.8764 268.656 75.9458C268.656 76.0151 268.588 76.0151 268.588 76.0151Z" fill="white"/>
<path d="M264.734 83.5057C264.596 83.5057 264.459 83.4363 264.39 83.2976C264.321 83.0895 264.39 82.9508 264.596 82.8121C270.79 80.0378 276.501 81.9798 276.776 82.1185C276.983 82.1879 277.051 82.396 276.983 82.5347C276.914 82.7428 276.707 82.8121 276.57 82.7428C276.501 82.7428 270.858 80.8008 264.872 83.4363C264.803 83.5057 264.803 83.5057 264.734 83.5057Z" fill="white"/>
<path d="M172.664 14.6343L155.874 4.85498L139.084 14.6343L155.874 24.4136L172.664 14.6343Z" fill="#F5F5F5"/>
<path d="M155.874 43.9029L172.664 34.1929V14.6343L155.874 24.4136V43.9029Z" fill="#EBEBEB"/>
<path d="M159.108 37.4527C159.04 37.4527 158.902 37.4527 158.833 37.3834C158.627 37.2447 158.489 37.0366 158.489 36.6898V34.6091V34.4704H158.627L160.209 33.4994V35.7882C160.209 36.343 159.865 37.0366 159.384 37.314C159.315 37.3834 159.246 37.4527 159.108 37.4527ZM158.833 34.7478V36.6898C158.833 36.8979 158.902 37.1059 159.04 37.1753C159.177 37.2447 159.315 37.1753 159.384 37.1059C159.728 36.8979 160.072 36.343 160.072 35.7882V35.6495H159.452L159.315 34.8172L158.833 34.7478ZM159.659 35.372H160.003V33.9849L159.04 34.5397L159.521 34.6091L159.659 35.372Z" fill="white"/>
<path d="M159.384 39.1173C159.315 39.1173 159.246 39.0479 159.246 38.9786V37.2446C159.246 37.1753 159.315 37.1059 159.384 37.1059C159.453 37.1059 159.521 37.1753 159.521 37.2446V38.9786C159.521 39.0479 159.453 39.1173 159.384 39.1173Z" fill="white"/>
<path d="M158.627 39.5334C158.558 39.5334 158.558 39.5334 158.489 39.4641C158.42 39.3947 158.489 39.3253 158.558 39.256L160.072 38.3543C160.141 38.3543 160.209 38.3543 160.278 38.4237C160.347 38.4931 160.278 38.5624 160.209 38.6318L158.627 39.5334C158.696 39.5334 158.696 39.5334 158.627 39.5334Z" fill="white"/>
<path d="M163.994 36.5511C163.925 36.5511 163.925 36.5511 163.857 36.4817C163.788 36.4124 163.719 36.343 163.719 36.1349V35.7882C163.719 35.7188 163.788 35.6494 163.857 35.6494C163.925 35.6494 163.994 35.7188 163.994 35.7882V36.1349C163.994 36.2043 163.994 36.2043 163.994 36.2043H164.063C164.201 36.1349 164.269 35.8575 164.269 35.6494V33.3607C164.269 33.2913 164.338 33.222 164.407 33.222C164.476 33.222 164.545 33.2913 164.545 33.3607V35.6494C164.545 35.9962 164.407 36.343 164.201 36.4817C164.132 36.4817 164.063 36.5511 163.994 36.5511Z" fill="white"/>
<path d="M162.618 34.5397V34.3317C162.618 33.2913 163.375 31.9735 164.269 31.4187C164.751 31.1412 165.164 31.1412 165.508 31.28C165.852 31.488 166.058 31.9042 166.058 32.459V32.5284L162.618 34.5397ZM165.026 31.4187C164.82 31.4187 164.613 31.488 164.407 31.6267C163.65 32.0429 162.962 33.1526 162.893 34.0542L165.783 32.3897C165.783 31.9735 165.646 31.6961 165.37 31.5574C165.301 31.488 165.164 31.4187 165.026 31.4187Z" fill="white"/>
<path d="M168.605 33.8456C168.536 33.8456 168.467 33.7762 168.467 33.7069V29.268C168.467 29.1987 168.536 29.1293 168.605 29.1293C168.673 29.1293 168.742 29.1987 168.742 29.268V33.7069C168.742 33.8456 168.673 33.8456 168.605 33.8456Z" fill="white"/>
<path d="M168.26 30.3089C168.26 30.3089 168.192 30.3089 168.26 30.3089C168.123 30.2396 168.123 30.1702 168.123 30.1009L168.604 29.0605L169.086 29.6847C169.155 29.7541 169.155 29.8234 169.086 29.8928C169.017 29.9622 168.949 29.9622 168.88 29.8928L168.604 29.6154L168.329 30.3089C168.329 30.3089 168.329 30.3089 168.26 30.3089Z" fill="white"/>
<path d="M169.843 33.152C169.774 33.152 169.705 33.0827 169.705 33.0133V28.5745C169.705 28.5051 169.774 28.4358 169.843 28.4358C169.912 28.4358 169.981 28.5051 169.981 28.5745V33.0133C169.981 33.152 169.912 33.152 169.843 33.152Z" fill="white"/>
<path d="M169.43 29.6154C169.293 29.546 169.293 29.4767 169.293 29.4073L169.774 28.367L170.256 28.9912C170.325 29.0605 170.325 29.1299 170.256 29.1993C170.187 29.2686 170.118 29.2686 170.05 29.1993L169.774 28.9218L169.499 29.6154C169.568 29.6154 169.499 29.6154 169.43 29.6154Z" fill="white"/>
<path d="M155.874 43.9029L139.084 34.1929V14.6343L155.874 24.4136V43.9029Z" fill="#E0E0E0"/>
<path d="M148.374 20.0441L165.164 10.2648L163.306 9.15511L146.516 18.9344L148.374 20.0441Z" fill="white"/>
<path d="M141.63 25.8008L147.617 29.2686C148.305 29.6847 148.787 30.5864 148.787 31.3493V35.0946C148.787 35.8575 148.236 36.2043 147.617 35.7881L141.63 32.3203C140.942 31.9042 140.461 31.0025 140.461 30.2396V26.4943C140.461 25.7314 141.011 25.454 141.63 25.8008Z" fill="#27DEBF"/>
<path d="M141.217 26.7718L141.424 26.9105V31.0719L141.217 30.9332V26.7718Z" fill="#27DEBF"/>
<path d="M142.112 27.3266L142.525 27.5347V31.6961L142.112 31.4187V27.3266Z" fill="#27DEBF"/>
<path d="M143.075 27.8121L143.282 27.9508V32.1122L143.075 31.9735V27.8121Z" fill="#27DEBF"/>
<path d="M143.763 28.2282L144.176 28.5057V32.6671L143.763 32.3897V28.2282Z" fill="#27DEBF"/>
<path d="M144.933 28.9218L145.14 29.0605V33.222L144.933 33.0832V28.9218Z" fill="#27DEBF"/>
<path d="M145.553 29.2686L146.034 29.6154V33.7074L145.553 33.43V29.2686Z" fill="#27DEBF"/>
<path d="M146.791 30.0315L146.998 30.1009V34.2623L146.791 34.1236V30.0315Z" fill="#27DEBF"/>
<path d="M147.273 30.309L147.411 30.3783V34.5397L147.273 34.4704V30.309Z" fill="#27DEBF"/>
<path d="M146.378 29.7541L146.447 29.8234V33.9849L146.31 33.9155L146.378 29.7541Z" fill="#27DEBF"/>
<path d="M144.452 28.6444L144.589 28.7138V32.8752L144.452 32.8058V28.6444Z" fill="#27DEBF"/>
<path d="M143.419 28.0895L143.557 28.1589V32.3203L143.419 32.251V28.0895Z" fill="#27DEBF"/>
<path d="M142.731 27.6734L142.8 27.7427V31.9042L142.731 31.8348V27.6734Z" fill="#27DEBF"/>
<path d="M141.699 27.0492L141.837 27.1186V31.28L141.699 31.2106V27.0492Z" fill="#27DEBF"/>
<path d="M147.686 30.517L147.892 30.6557V34.8172L147.686 34.6784V30.517Z" fill="#27DEBF"/>
<path d="M150.301 11.3745L130.758 0L111.147 11.3745L130.758 22.7491L150.301 11.3745Z" fill="#F5F5F5"/>
<path d="M122.363 17.8941L141.906 6.51955L139.979 5.40984L120.436 16.7844L122.363 17.8941Z" fill="white"/>
<path d="M130.758 58.5372L150.301 47.1627V11.3745L130.758 22.7491V58.5372Z" fill="#EBEBEB"/>
<path d="M133.924 52.087C133.855 52.087 133.717 52.087 133.648 52.0177C133.442 51.8789 133.304 51.6709 133.304 51.3241V49.2434V49.1047H133.442L135.024 48.1337V50.4224C135.024 50.9773 134.68 51.6709 134.199 51.9483C134.199 52.0177 134.061 52.087 133.924 52.087ZM133.648 49.3821V51.3241C133.648 51.5322 133.717 51.7402 133.855 51.8096C133.992 51.8789 134.13 51.8096 134.199 51.7402C134.543 51.5322 134.887 50.9773 134.887 50.4224V50.2837H134.268L134.13 49.4514L133.648 49.3821ZM134.474 50.0063H134.818V48.5498L133.855 49.1047L134.336 49.174L134.474 50.0063Z" fill="white"/>
<path d="M134.268 53.7516C134.199 53.7516 134.13 53.6822 134.13 53.6129V51.879C134.13 51.8096 134.199 51.7402 134.268 51.7402C134.336 51.7402 134.405 51.8096 134.405 51.879V53.6129C134.405 53.6822 134.336 53.7516 134.268 53.7516Z" fill="white"/>
<path d="M133.511 54.1677C133.442 54.1677 133.442 54.1677 133.373 54.0984C133.304 54.029 133.373 53.9597 133.442 53.8903L134.956 52.9887C135.024 52.9193 135.093 52.9887 135.162 53.058C135.231 53.1274 135.162 53.1967 135.093 53.2661L133.511 54.1677Z" fill="white"/>
<path d="M138.809 51.1854C138.74 51.1854 138.74 51.1854 138.671 51.116C138.603 51.0467 138.534 50.9773 138.534 50.7692V50.4224C138.534 50.3531 138.603 50.2837 138.671 50.2837C138.74 50.2837 138.809 50.3531 138.809 50.4224V50.7692C138.809 50.8386 138.809 50.8386 138.809 50.8386H138.878C139.015 50.7692 139.084 50.4918 139.084 50.2837V47.995C139.084 47.9256 139.153 47.8562 139.222 47.8562C139.291 47.8562 139.36 47.9256 139.36 47.995V50.2837C139.36 50.6305 139.222 50.9773 139.015 51.116C138.947 51.1854 138.878 51.1854 138.809 51.1854Z" fill="white"/>
<path d="M137.502 49.174V48.966C137.502 47.9256 138.259 46.6078 139.153 46.053C139.635 45.7756 140.048 45.7756 140.392 45.9143C140.736 46.1223 140.942 46.5385 140.942 47.0933V47.1627L137.502 49.174ZM139.91 46.053C139.704 46.053 139.497 46.1223 139.291 46.261C138.534 46.6772 137.846 47.7869 137.777 48.6885L140.667 47.024C140.667 46.6078 140.529 46.3304 140.254 46.1917C140.117 46.1223 140.048 46.053 139.91 46.053Z" fill="white"/>
<path d="M143.488 48.4805C143.419 48.4805 143.351 48.4111 143.351 48.3417V43.9029C143.351 43.8335 143.419 43.7642 143.488 43.7642C143.557 43.7642 143.626 43.8335 143.626 43.9029V48.3417C143.626 48.4805 143.557 48.4805 143.488 48.4805Z" fill="white"/>
<path d="M143.075 44.9433C142.938 44.8739 142.938 44.8045 142.938 44.7352L143.419 43.6948L143.901 44.319C143.97 44.3884 143.97 44.4577 143.901 44.5271C143.832 44.5965 143.763 44.5965 143.695 44.5271L143.419 44.2497L143.144 44.9433C143.213 44.9433 143.144 44.9433 143.075 44.9433Z" fill="white"/>
<path d="M144.658 47.8562C144.589 47.8562 144.52 47.7869 144.52 47.7175V43.2787C144.52 43.2093 144.589 43.14 144.658 43.14C144.727 43.14 144.796 43.2093 144.796 43.2787V47.7175C144.796 47.7869 144.727 47.8562 144.658 47.8562Z" fill="white"/>
<path d="M144.314 44.2497C144.245 44.2497 144.245 44.2497 144.314 44.2497C144.176 44.1803 144.176 44.111 144.176 44.0416L144.658 43.0013L145.14 43.6255C145.209 43.6948 145.209 43.7642 145.14 43.8335C145.071 43.9029 145.002 43.9029 144.933 43.8335L144.658 43.5561L144.383 44.2497H144.314Z" fill="white"/>
<path d="M130.758 58.5372L111.147 47.1627V11.3745L130.758 22.7491V58.5372Z" fill="#E0E0E0"/>
<path d="M115.138 39.7415L121.125 43.2093C121.813 43.6255 122.294 44.5271 122.294 45.29V49.0353C122.294 49.7982 121.744 50.145 121.125 49.7289L115.138 46.261C114.45 45.8449 113.968 44.9433 113.968 44.1803V40.4351C113.968 39.6721 114.45 39.3253 115.138 39.7415Z" fill="#F5F5F5"/>
<path d="M114.656 40.6431L114.931 40.7818V44.9433L114.656 44.8045V40.6431Z" fill="#E0E0E0"/>
<path d="M115.62 41.198L115.964 41.406V45.5674L115.62 45.3594V41.198Z" fill="#E0E0E0"/>
<path d="M116.514 41.7529L116.789 41.8916V46.053L116.514 45.9143V41.7529Z" fill="#E0E0E0"/>
<path d="M117.202 42.169L117.684 42.4464V46.5385L117.202 46.261V42.169Z" fill="#E0E0E0"/>
<path d="M118.372 42.7932L118.647 42.9319V47.0933L118.372 46.9546V42.7932Z" fill="#E0E0E0"/>
<path d="M119.06 43.2094L119.542 43.4868V47.6482L119.06 47.3708V43.2094Z" fill="#E0E0E0"/>
<path d="M120.23 43.9029L120.505 44.0416V48.203L120.23 48.0643V43.9029Z" fill="#E0E0E0"/>
<path d="M120.781 44.1803L120.918 44.2497V48.4111L120.781 48.3417V44.1803Z" fill="#E0E0E0"/>
<path d="M119.817 43.6948L119.955 43.7642V47.8562L119.817 47.7869V43.6948Z" fill="#E0E0E0"/>
<path d="M117.959 42.5851L118.097 42.6545V46.8159L117.959 46.7465V42.5851Z" fill="#E0E0E0"/>
<path d="M116.927 41.9609L117.065 42.0303V46.1917L116.927 46.1223V41.9609Z" fill="#E0E0E0"/>
<path d="M116.17 41.5448L116.308 41.6141V45.7755L116.17 45.7062V41.5448Z" fill="#E0E0E0"/>
<path d="M115.207 40.9899L115.276 41.0593V45.1513L115.207 45.082V40.9899Z" fill="#E0E0E0"/>
<path d="M121.193 44.4578L121.4 44.5965V48.6885L121.193 48.6192V44.4578Z" fill="#E0E0E0"/>
<path d="M120.436 21.4313L122.363 22.541V17.8941L120.436 16.7844V21.4313Z" fill="#F0F0F0"/>
<path d="M91.6044 48.8272L77.6357 40.6431L58.0244 52.0177L72.062 60.2018L91.6044 48.8272Z" fill="#F5F5F5"/>
<path d="M72.0619 92.7301L91.6044 81.3556V48.8272L72.0619 60.2018V92.7301Z" fill="#EBEBEB"/>
<path d="M75.2272 86.2106C75.1584 86.2106 75.0208 86.2106 74.952 86.1412C74.7455 86.0025 74.6079 85.7944 74.6079 85.4476V83.3669V83.2282H74.7455L76.3282 82.2572V84.546C76.3282 85.1009 75.9841 85.7944 75.5025 86.0719C75.5025 86.2106 75.3648 86.2106 75.2272 86.2106ZM74.952 83.575V85.517C74.952 85.7251 75.0208 85.9331 75.1584 86.0025C75.296 86.0719 75.4336 86.0025 75.5025 85.9331C75.8465 85.7251 76.1906 85.1702 76.1906 84.6154V84.4767H75.5713L75.4336 83.6444L74.952 83.575ZM75.7777 84.1992H76.1218V82.7427L75.1584 83.2976L75.6401 83.3669L75.7777 84.1992Z" fill="white"/>
<path d="M75.5712 87.8752C75.5024 87.8752 75.4336 87.8058 75.4336 87.7364V86.0025C75.4336 85.9332 75.5024 85.8638 75.5712 85.8638C75.64 85.8638 75.7088 85.9332 75.7088 86.0025V87.7364C75.7088 87.8058 75.64 87.8752 75.5712 87.8752Z" fill="white"/>
<path d="M74.8143 88.2913C74.7455 88.2913 74.7455 88.2913 74.6767 88.222C74.6079 88.1526 74.6767 88.0833 74.7455 88.0139L76.2594 87.1123C76.3282 87.0429 76.397 87.1123 76.4658 87.1816C76.5346 87.251 76.4658 87.3203 76.397 87.3897L74.8143 88.2913Z" fill="white"/>
<path d="M80.1129 85.309C80.0441 85.309 80.0441 85.309 79.9753 85.2396C79.9065 85.1702 79.8376 85.1009 79.8376 84.8928V84.6154C79.8376 84.546 79.9065 84.4767 79.9753 84.4767C80.0441 84.4767 80.1129 84.546 80.1129 84.6154V84.9622C80.1129 85.0315 80.1129 85.0315 80.1129 85.0315H80.1817C80.3193 84.9622 80.3881 84.6847 80.3881 84.4767V82.1879C80.3881 82.1185 80.4569 82.0492 80.5258 82.0492C80.5946 82.0492 80.6634 82.1185 80.6634 82.1879V84.4767C80.6634 84.8235 80.5258 85.1702 80.3193 85.309C80.2505 85.309 80.1817 85.309 80.1129 85.309Z" fill="white"/>
<path d="M78.8054 83.2976V83.0895C78.8054 82.0492 79.5623 80.7314 80.4569 80.1765C80.9386 79.8991 81.3514 79.8991 81.6955 80.0378C82.0396 80.2459 82.246 80.662 82.246 81.2169V81.2863L78.8054 83.2976ZM81.2138 80.2459C81.0074 80.2459 80.801 80.3153 80.5945 80.454C79.8376 80.8701 79.1495 81.9798 79.0807 82.8815L81.9707 81.2169C81.9707 80.8008 81.8331 80.5233 81.5579 80.3846C81.4203 80.2459 81.3514 80.2459 81.2138 80.2459Z" fill="white"/>
<path d="M84.792 82.6728C84.7232 82.6728 84.6544 82.6035 84.6544 82.5341V78.0953C84.6544 78.0259 84.7232 77.9566 84.792 77.9566C84.8609 77.9566 84.9297 78.0259 84.9297 78.0953V82.5341C84.9297 82.6035 84.8609 82.6728 84.792 82.6728Z" fill="white"/>
<path d="M84.3792 79.1362C84.2416 79.0669 84.2416 78.9975 84.2416 78.9281L84.7233 77.8878L85.2049 78.512C85.2738 78.5814 85.2738 78.6507 85.2049 78.7201C85.1361 78.7894 85.0673 78.7894 84.9985 78.7201L84.7233 78.4426L84.448 79.1362C84.5168 79.0669 84.448 79.1362 84.3792 79.1362Z" fill="white"/>
<path d="M85.962 81.9793C85.8932 81.9793 85.8243 81.9099 85.8243 81.8406V77.4017C85.8243 77.3324 85.8932 77.263 85.962 77.263C86.0308 77.263 86.0996 77.3324 86.0996 77.4017V81.8406C86.0996 81.9099 86.0308 81.9793 85.962 81.9793Z" fill="white"/>
<path d="M85.6179 78.4426C85.549 78.4426 85.549 78.4426 85.6179 78.4426C85.4802 78.3732 85.4802 78.3039 85.4802 78.2345L85.9619 77.1942L86.4436 77.8184C86.5124 77.8877 86.5124 77.9571 86.4436 78.0265C86.3748 78.0958 86.306 78.0958 86.2372 78.0265L86.0307 77.6797L85.7555 78.3732C85.6867 78.4426 85.6179 78.4426 85.6179 78.4426Z" fill="white"/>
<path d="M72.062 92.7301L58.0244 84.6154V52.0177L72.062 60.2018V92.7301Z" fill="#E0E0E0"/>
<path d="M64.5614 60.4792L66.4193 61.5196V56.942L64.5614 55.8323V60.4792Z" fill="#F5F5F5"/>
<path d="M66.4193 56.942L86.0306 45.5675L84.1039 44.4578L64.5614 55.8323L66.4193 56.942Z" fill="white"/>
<path d="M66.4194 76.4313L41.3032 61.797L16.1182 76.4313L41.3032 91.0656L66.4194 76.4313Z" fill="#F5F5F5"/>
<path d="M41.3032 110.624L66.4194 95.9899V76.4313L41.3032 91.0656V110.624Z" fill="#EBEBEB"/>
<path d="M44.5382 104.105C44.4694 104.105 44.3318 104.105 44.263 104.035C44.0566 103.897 43.9189 103.689 43.9189 103.342V101.261V101.122H44.0566L45.6392 100.151V102.44C45.6392 102.995 45.2952 103.689 44.8135 103.966C44.7447 104.105 44.6071 104.105 44.5382 104.105ZM44.1942 101.469V103.411C44.1942 103.619 44.263 103.827 44.4006 103.897C44.5382 103.966 44.6759 103.897 44.7447 103.827C45.0887 103.619 45.4328 102.995 45.4328 102.509V102.371H44.8135L44.6759 101.538L44.1942 101.469ZM45.0199 102.093H45.4328V100.637L44.4694 101.192L44.9511 101.261L45.0199 102.093Z" fill="white"/>
<path d="M44.8125 105.769C44.7437 105.769 44.6749 105.7 44.6749 105.631V103.897C44.6749 103.827 44.7437 103.758 44.8125 103.758C44.8814 103.758 44.9502 103.827 44.9502 103.897V105.631C44.9502 105.7 44.8814 105.769 44.8125 105.769Z" fill="white"/>
<path d="M44.0557 106.185C43.9868 106.185 43.9868 106.185 43.918 106.116C43.8492 106.047 43.918 105.977 43.9868 105.908L45.5007 105.006C45.5695 104.937 45.6383 105.006 45.7071 105.076C45.7759 105.145 45.7071 105.214 45.6383 105.284L44.0557 106.185C44.1245 106.185 44.0557 106.185 44.0557 106.185Z" fill="white"/>
<path d="M49.4228 103.203C49.354 103.203 49.354 103.203 49.2852 103.134C49.2164 103.064 49.1476 102.995 49.1476 102.787V102.44C49.1476 102.371 49.2164 102.301 49.2852 102.301C49.354 102.301 49.4228 102.371 49.4228 102.44V102.787C49.4228 102.856 49.4228 102.856 49.4228 102.856H49.4916C49.6293 102.787 49.6981 102.509 49.6981 102.301V100.013C49.6981 99.9432 49.7669 99.8739 49.8357 99.8739C49.9045 99.8739 49.9733 99.9432 49.9733 100.013V102.301C49.9733 102.648 49.8357 102.995 49.6293 103.134C49.5604 103.203 49.4916 103.203 49.4228 103.203Z" fill="white"/>
<path d="M48.0466 101.192V100.984C48.0466 99.9433 48.8036 98.6255 49.6981 98.0706C50.1798 97.7932 50.5927 97.7932 50.9367 97.9319C51.2808 98.14 51.4872 98.5561 51.4872 99.111V99.1803L48.0466 101.192ZM50.455 98.14C50.2486 98.14 50.0422 98.2093 49.8357 98.3481C49.0788 98.7642 48.3907 99.8739 48.3219 100.776L51.212 99.111C51.212 98.6948 51.0743 98.4174 50.7991 98.2787C50.7303 98.14 50.5927 98.14 50.455 98.14Z" fill="white"/>
<path d="M54.0333 100.567C53.9644 100.567 53.8956 100.498 53.8956 100.428V95.9894C53.8956 95.92 53.9644 95.8507 54.0333 95.8507C54.1021 95.8507 54.1709 95.92 54.1709 95.9894V100.428C54.1709 100.498 54.1021 100.567 54.0333 100.567Z" fill="white"/>
<path d="M53.6204 97.0303C53.4828 96.9609 53.4828 96.8916 53.4828 96.8222L53.9645 95.7818L54.4461 96.4061C54.515 96.4754 54.515 96.5448 54.4461 96.6141C54.3773 96.6835 54.3085 96.6835 54.2397 96.6141L53.9645 96.3367L53.6892 97.0303C53.758 96.9609 53.6892 97.0303 53.6204 97.0303Z" fill="white"/>
<path d="M55.2031 99.8734C55.1342 99.8734 55.0654 99.804 55.0654 99.7347V95.2958C55.0654 95.2265 55.1342 95.1571 55.2031 95.1571C55.2719 95.1571 55.3407 95.2265 55.3407 95.2958V99.7347C55.3407 99.804 55.2719 99.8734 55.2031 99.8734Z" fill="white"/>
<path d="M54.8591 96.3367C54.7902 96.3367 54.7902 96.3367 54.8591 96.3367C54.7214 96.2673 54.7214 96.198 54.7214 96.1286L55.2031 95.0883L55.6848 95.7125C55.7536 95.7818 55.7536 95.8512 55.6848 95.9206C55.616 95.9899 55.5472 95.9899 55.4784 95.9206L55.2031 95.6431L54.9279 96.3367C54.9279 96.2673 54.8591 96.3367 54.8591 96.3367Z" fill="white"/>
<path d="M41.3032 110.624L16.1182 95.9899V76.4313L41.3032 91.0656V110.624Z" fill="#E0E0E0"/>
<path d="M27.7473 87.8058L29.674 88.9155V84.338L27.7473 83.2283V87.8058Z" fill="#F5F5F5"/>
<path d="M29.674 84.338L54.7902 69.7037L52.9323 68.5939L27.7473 83.2282L29.674 84.338Z" fill="white"/>
<path d="M20.1092 88.4994L26.0958 91.9672C26.784 92.3834 27.2656 93.285 27.2656 94.0479V97.7932C27.2656 98.5561 26.7152 98.9029 26.0958 98.4868L20.1092 95.0189C19.4211 94.6028 18.9395 93.7011 18.9395 92.9382V89.1929C18.9395 88.43 19.4211 88.1526 20.1092 88.4994Z" fill="#F5F5F5"/>
<path d="M19.6276 89.4704L19.9028 89.6091V93.7705L19.6276 93.6318V89.4704Z" fill="#E0E0E0"/>
<path d="M20.5908 90.0252L20.9349 90.2333V94.3947L20.5908 94.1173V90.0252Z" fill="#E0E0E0"/>
<path d="M21.4855 90.5107L21.7607 90.6494V94.8108L21.4855 94.6721V90.5107Z" fill="#E0E0E0"/>
<path d="M22.1736 90.9268L22.6553 91.2043V95.3657L22.1736 95.0883V90.9268Z" fill="#E0E0E0"/>
<path d="M23.3434 91.6204L23.6186 91.7591V95.9205L23.3434 95.7818V91.6204Z" fill="#E0E0E0"/>
<path d="M24.0315 91.9672L24.5132 92.314V96.406L24.0315 96.1286V91.9672Z" fill="#E0E0E0"/>
<path d="M25.2013 92.7302L25.4765 92.7995V96.9609L25.2013 96.8222V92.7302Z" fill="#E0E0E0"/>
<path d="M25.7517 93.0076L25.8893 93.0769V97.2383L25.7517 97.169V93.0076Z" fill="#E0E0E0"/>
<path d="M24.7883 92.4527L24.926 92.522V96.6835L24.7883 96.6141V92.4527Z" fill="#E0E0E0"/>
<path d="M22.9305 91.343L23.0682 91.4124V95.5738L22.9305 95.5044V91.343Z" fill="#E0E0E0"/>
<path d="M21.8983 90.7882L22.0359 90.8575V95.0189L21.8983 94.9496V90.7882Z" fill="#E0E0E0"/>
<path d="M21.1414 90.372L21.279 90.4413V94.6027L21.1414 94.5334V90.372Z" fill="#E0E0E0"/>
<path d="M20.178 89.7478L20.2468 89.8172V93.9786L20.178 93.9092V89.7478Z" fill="#E0E0E0"/>
<path d="M26.1647 93.2156L26.3711 93.3543V97.5157L26.1647 97.377V93.2156Z" fill="#E0E0E0"/>
<path d="M60.8456 37.3833L41.3032 26.0088L21.6919 37.3833L41.3032 48.8272L60.8456 37.3833Z" fill="#F5F5F5"/>
<path d="M41.3032 87.8058L60.8457 76.4313V37.3833L41.3032 48.8272V87.8058Z" fill="#EBEBEB"/>
<path d="M44.5382 81.3556C44.4694 81.3556 44.3318 81.3556 44.263 81.2863C44.0566 81.1476 43.9189 80.9395 43.9189 80.5927V78.512V78.3733H44.0566L45.6392 77.4023V79.6911C45.6392 80.2459 45.2952 80.9395 44.8135 81.2169C44.7447 81.3556 44.6071 81.3556 44.5382 81.3556ZM44.1942 78.6507V80.5927C44.1942 80.8008 44.263 81.0088 44.4006 81.0782C44.5382 81.1476 44.6759 81.0782 44.7447 81.0088C45.0887 80.8008 45.4328 80.2459 45.4328 79.6911V79.5523H44.8135L44.6759 78.7201L44.1942 78.6507ZM45.0199 79.3443H45.4328V77.8878L44.4694 78.4426L44.9511 78.512L45.0199 79.3443Z" fill="white"/>
<path d="M44.8125 83.0202C44.7437 83.0202 44.6749 82.9508 44.6749 82.8815V81.1475C44.6749 81.0782 44.7437 81.0088 44.8125 81.0088C44.8814 81.0088 44.9502 81.0782 44.9502 81.1475V82.8815C44.9502 82.9508 44.8814 83.0202 44.8125 83.0202Z" fill="white"/>
<path d="M44.0557 83.4363C43.9868 83.4363 43.9868 83.4363 43.918 83.367C43.8492 83.2976 43.918 83.2282 43.9868 83.1589L45.5007 82.2572C45.5695 82.1879 45.6383 82.2572 45.7071 82.3266C45.7759 82.396 45.7071 82.4653 45.6383 82.5347L44.0557 83.4363C44.1245 83.4363 44.0557 83.4363 44.0557 83.4363Z" fill="white"/>
<path d="M49.4228 80.454C49.354 80.454 49.354 80.454 49.2852 80.3846C49.2164 80.3153 49.1476 80.2459 49.1476 80.0378V79.7604C49.1476 79.691 49.2164 79.6217 49.2852 79.6217C49.354 79.6217 49.4228 79.691 49.4228 79.7604V80.1072C49.4228 80.1765 49.4228 80.1765 49.4228 80.1765H49.4916C49.6293 80.1072 49.6981 79.8298 49.6981 79.6217V77.3329C49.6981 77.2636 49.7669 77.1942 49.8357 77.1942C49.9045 77.1942 49.9733 77.2636 49.9733 77.3329V79.6217C49.9733 79.9685 49.8357 80.3153 49.6293 80.454C49.5604 80.454 49.4916 80.454 49.4228 80.454Z" fill="white"/>
<path d="M48.0466 78.4426V78.2346C48.0466 77.1942 48.8036 75.8764 49.6981 75.3216C50.1798 75.0441 50.5927 75.0441 50.9367 75.1829C51.2808 75.3909 51.4872 75.8071 51.4872 76.3619V76.4313L48.0466 78.4426ZM50.455 75.3216C50.2486 75.3216 50.0422 75.3909 49.8357 75.5296C49.0788 75.9458 48.3907 77.0555 48.3219 77.9571L51.212 76.2926C51.212 75.8764 51.0743 75.599 50.7991 75.4603C50.7303 75.3909 50.5927 75.3216 50.455 75.3216Z" fill="white"/>
<path d="M54.0333 77.8184C53.9644 77.8184 53.8956 77.7491 53.8956 77.6797V73.2409C53.8956 73.1715 53.9644 73.1022 54.0333 73.1022C54.1021 73.1022 54.1709 73.1715 54.1709 73.2409V77.6797C54.1709 77.7491 54.1021 77.8184 54.0333 77.8184Z" fill="white"/>
<path d="M53.6204 74.2119C53.4828 74.1425 53.4828 74.0731 53.4828 74.0038L53.9645 72.9634L54.4461 73.5876C54.515 73.657 54.515 73.7264 54.4461 73.7957C54.3773 73.8651 54.3085 73.8651 54.2397 73.7957L53.9645 73.5183L53.6892 74.2119C53.758 74.2119 53.6892 74.2119 53.6204 74.2119Z" fill="white"/>
<path d="M55.2031 77.1243C55.1342 77.1243 55.0654 77.0549 55.0654 76.9856V72.5467C55.0654 72.4774 55.1342 72.408 55.2031 72.408C55.2719 72.408 55.3407 72.4774 55.3407 72.5467V76.9856C55.3407 77.0549 55.2719 77.1243 55.2031 77.1243Z" fill="white"/>
<path d="M54.8591 73.5876C54.7902 73.5876 54.7902 73.5876 54.8591 73.5876C54.7214 73.5183 54.7214 73.4489 54.7214 73.3796L55.2031 72.3392L55.6848 72.9634C55.7536 73.0328 55.7536 73.1021 55.6848 73.1715C55.616 73.2409 55.5472 73.2409 55.4784 73.1715L55.2031 72.8941L54.9279 73.5876C54.9279 73.5183 54.8591 73.5876 54.8591 73.5876Z" fill="white"/>
<path d="M41.3032 87.8058L21.6919 76.4313V37.3833L41.3032 48.8272V87.8058Z" fill="#E0E0E0"/>
<path d="M30.9814 47.4401L32.9082 48.5498V43.9029L30.9814 42.7932V47.4401Z" fill="#F5F5F5"/>
<path d="M32.9082 43.9029L52.4506 32.5284L50.5927 31.4187L30.9814 42.7932L32.9082 43.9029Z" fill="white"/>
<path d="M25.683 69.0101L31.6696 72.4779C32.3577 72.8941 32.8394 73.7957 32.8394 74.5586V78.3039C32.8394 79.0668 32.2889 79.4136 31.6696 78.9975L25.683 75.5296C24.9949 75.1135 24.5132 74.2119 24.5132 73.4489V69.7037C24.5132 68.9407 25.0637 68.5939 25.683 69.0101Z" fill="#F5F5F5"/>
<path d="M25.2013 69.9117L25.4765 70.0505V74.2119L25.2013 74.0732V69.9117Z" fill="#E0E0E0"/>
<path d="M26.1647 70.4666L26.5775 70.744V74.8361L26.1647 74.628V70.4666Z" fill="#E0E0E0"/>
<path d="M27.0592 71.0214L27.3345 71.1601V75.3215L27.0592 75.1828V71.0214Z" fill="#E0E0E0"/>
<path d="M27.8162 71.4376L28.229 71.715V75.8071L27.8162 75.599V71.4376Z" fill="#E0E0E0"/>
<path d="M28.9171 72.1311L29.1924 72.2005V76.3619L28.9171 76.2232V72.1311Z" fill="#E0E0E0"/>
<path d="M29.6052 72.4779L30.0869 72.7554V76.9168L29.6052 76.6393V72.4779Z" fill="#E0E0E0"/>
<path d="M30.775 73.1715L31.0503 73.3102V77.4716L30.775 77.3329V73.1715Z" fill="#E0E0E0"/>
<path d="M31.3254 73.5183H31.4631V77.6797L31.3254 77.6104V73.5183Z" fill="#E0E0E0"/>
<path d="M30.3622 72.9634L30.4998 73.0328V77.1942L30.3622 77.1248V72.9634Z" fill="#E0E0E0"/>
<path d="M28.5043 71.8537L28.6419 71.9231V76.0845L28.5043 76.0151V71.8537Z" fill="#E0E0E0"/>
<path d="M27.472 71.2295L27.6097 71.2989V75.4603L27.472 75.3909V71.2295Z" fill="#E0E0E0"/>
<path d="M26.7151 70.8827H26.8527V75.0441L26.7151 74.9748V70.8827Z" fill="#E0E0E0"/>
<path d="M25.7517 70.2585L25.8893 70.3279V74.4199L25.7517 74.3506V70.2585Z" fill="#E0E0E0"/>
<path d="M31.7384 73.7264L31.9448 73.8651V78.0265L31.7384 77.8878V73.7264Z" fill="#E0E0E0"/>
<path d="M21.8983 144.887L96.9716 188.581C98.6231 189.552 101.307 189.552 102.958 188.581L267.486 92.7995C269.138 91.8285 269.138 90.3026 267.486 89.3316L192.413 45.6368C190.762 44.6658 188.078 44.6658 186.427 45.6368L21.8983 141.419C20.2468 142.39 20.2468 143.916 21.8983 144.887Z" fill="#455A64"/>
<path d="M62.497 165.139C64.7678 166.456 68.4836 166.456 70.7544 165.139C73.0252 163.821 73.0252 161.671 70.7544 160.353C68.4836 159.035 64.7678 159.035 62.497 160.353C60.2263 161.671 60.2263 163.821 62.497 165.139Z" fill="#263238"/>
<path d="M98.3479 188.581L23.2745 144.887C21.8295 144.054 21.6231 142.667 22.7929 141.765C21.3478 142.875 20.2468 144.887 20.2468 146.62V149.464C20.2468 151.406 21.5542 153.695 23.2057 154.666L98.279 198.361C99.1048 198.846 100.206 199.054 101.238 199.054V189.275C100.275 189.275 99.1736 189.067 98.3479 188.581Z" fill="#37474F"/>
<path d="M267.487 102.579C269.138 101.608 270.445 99.319 270.445 97.3771V94.5334C270.445 92.7995 269.344 90.7188 267.899 89.6785C269.069 90.6494 268.932 91.9672 267.418 92.7995L102.958 188.581C102.133 189.067 101.032 189.275 99.9994 189.275V199.054C101.1 199.054 102.133 198.846 102.958 198.361L267.487 102.579Z" fill="#263238"/>
<path d="M109.358 179.496L37.5185 137.673C36.5552 137.119 36.5552 136.148 37.5185 135.593L176.449 54.7226C177.412 54.1677 179.064 54.1677 180.027 54.7226L251.935 96.5448C252.898 97.0996 252.898 98.0706 251.935 98.6255L112.936 179.496C111.973 180.12 110.39 180.12 109.358 179.496Z" fill="white"/>
<path d="M80.3881 156.122L88.7831 151.267L86.0306 149.672L77.6356 154.527L80.3881 156.122Z" fill="#27DEBF"/>
<path d="M181.059 97.5851L189.454 92.7301L186.633 91.0656L178.238 95.9899L181.059 97.5851Z" fill="#27DEBF"/>
<path d="M197.781 87.8058L206.176 82.9508L203.423 81.3556L195.028 86.2106L197.781 87.8058Z" fill="#27DEBF"/>
<path d="M224.755 70.744C225.305 71.0908 226.268 71.0908 226.819 70.744C227.369 70.3972 227.369 69.8424 226.819 69.4956C226.268 69.1488 225.305 69.1488 224.755 69.4956C224.135 69.8424 224.135 70.3972 224.755 70.744Z" fill="#263238"/>
<path d="M228.058 80.3153C229.227 81.0088 231.085 81.0088 232.255 80.3153C233.425 79.6217 233.425 78.5813 232.255 77.8878C231.085 77.1942 229.227 77.1942 228.058 77.8878C226.888 78.5813 226.888 79.6217 228.058 80.3153Z" fill="#263238"/>
<path d="M225.099 76.0845C225.856 75.6684 225.856 74.9054 225.03 74.4199L211.268 66.3745C210.442 65.889 209.134 65.889 208.377 66.3052C207.621 66.7213 207.621 67.4842 208.446 67.9697L222.209 76.0151C223.034 76.5006 224.342 76.5006 225.099 76.0845Z" fill="#263238"/>
<path d="M201.634 43.5561L202.116 43.2787C201.84 44.319 201.634 45.5675 201.634 46.8852V48.5498C201.634 54.6532 208.859 70.1198 211.543 75.6683C211.818 76.2232 208.171 80.1765 208.171 80.1765L212.506 77.6797C212.506 77.6797 223.378 68.6633 223.378 61.2421V59.5775C223.378 52.1564 218.493 43.2787 212.506 39.8108C209.479 38.0769 206.726 38.0076 204.799 39.3253L200.671 41.6835L201.634 43.5561ZM207.07 49.2434C207.07 45.7755 209.479 44.319 212.506 46.053C212.231 48.2724 216.291 55.2774 217.942 55.5548C217.942 59.0227 215.534 60.4792 212.506 58.7453C209.547 56.942 207.07 52.7112 207.07 49.2434Z" fill="#27DEBF"/>
<path d="M197.161 51.2547C197.299 58.6759 208.515 80.1072 208.515 80.1072C208.515 80.1072 219.25 70.9521 219.112 63.5309V61.8663C218.974 54.4451 214.02 45.6368 207.965 42.2383C201.909 38.8398 197.092 42.0996 197.23 49.5901L197.161 51.2547ZM202.597 51.8096C202.529 48.3417 204.937 46.8852 207.965 48.5498C210.992 50.2144 213.47 54.4451 213.538 57.913C213.607 61.3808 211.199 62.8373 208.171 61.1727C205.143 59.5082 202.666 55.3468 202.597 51.8096Z" fill="#27DEBF"/>
<path opacity="0.1" d="M197.161 51.2547C197.299 58.6759 208.515 80.1072 208.515 80.1072C208.515 80.1072 219.25 70.9521 219.112 63.5309V61.8663C218.974 54.4451 214.02 45.6368 207.965 42.2383C201.909 38.8398 197.092 42.0996 197.23 49.5901L197.161 51.2547ZM202.597 51.8096C202.529 48.3417 204.937 46.8852 207.965 48.5498C210.992 50.2144 213.47 54.4451 213.538 57.913C213.607 61.3808 211.199 62.8373 208.171 61.1727C205.143 59.5082 202.666 55.3468 202.597 51.8096Z" fill="black"/>
<path d="M92.2237 150.435C99.1737 154.458 115.482 151.545 128.625 143.846L164.751 122.831C177.894 115.202 182.917 105.7 175.967 101.677C169.017 97.6545 152.64 100.567 139.497 108.266L103.371 129.281C90.297 136.91 85.2737 146.412 92.2237 150.435Z" fill="#F0F0F0"/>
<path d="M97.1782 146.412L105.573 141.488L102.752 139.893L94.3569 144.748L97.1782 146.412Z" fill="#27DEBF"/>
<path d="M113.968 136.633L122.363 131.778L119.542 130.114L111.147 135.038L113.968 136.633Z" fill="#27DEBF"/>
<path d="M110.528 134.691C110.528 138.783 107.706 143.707 104.197 145.788C102.339 146.898 100.619 146.898 99.5177 146.066C98.692 145.441 98.0727 144.401 97.9351 143.014C98.1415 142.944 98.4167 142.806 98.6232 142.667C102.133 140.656 104.954 135.662 104.954 131.57C104.954 131.223 104.954 130.946 104.885 130.668C106.192 130.044 107.431 129.975 108.326 130.391C109.702 130.946 110.528 132.472 110.528 134.691Z" fill="#263238"/>
<path d="M111.078 126.299C111.009 126.299 111.009 126.23 110.94 126.23C109.151 125.259 106.812 125.467 104.128 126.992C98.7609 130.114 94.3569 137.743 94.3569 144.054C94.3569 147.245 95.4579 149.464 97.247 150.435C99.0361 151.475 101.445 151.267 104.128 149.742C109.495 146.62 113.899 138.922 113.899 132.68C113.968 129.489 112.867 127.27 111.078 126.299ZM104.197 145.719C102.339 146.829 100.619 146.829 99.5178 145.996C98.4856 145.303 97.8663 143.916 97.8663 141.974C97.8663 137.881 100.688 132.957 104.197 130.876C105.78 129.975 107.225 129.767 108.394 130.252C109.702 130.807 110.596 132.333 110.596 134.552C110.528 138.714 107.706 143.707 104.197 145.719Z" fill="#37474F"/>
<path d="M108.67 130.53C108.67 130.53 108.601 130.53 108.601 130.46C107.431 129.836 105.917 129.975 104.197 130.946C100.688 132.957 97.8663 137.951 97.8663 142.043C97.8663 144.124 98.5544 145.511 99.7242 146.204C100.894 146.828 102.477 146.759 104.197 145.719C107.706 143.707 110.528 138.714 110.528 134.622C110.528 132.61 109.771 131.154 108.67 130.53ZM104.197 144.262C102.683 145.164 101.376 145.164 100.412 144.47C99.5866 143.915 99.1049 142.806 99.1049 141.28C99.1049 138.02 101.376 133.997 104.197 132.402C105.504 131.639 106.674 131.501 107.569 131.917C108.67 132.402 109.289 133.581 109.289 135.385C109.289 138.644 107.018 142.667 104.197 144.262Z" fill="#27DEBF"/>
<path d="M130.758 126.854L139.084 121.999L136.332 120.334L127.937 125.259L130.758 126.854Z" fill="#27DEBF"/>
<path d="M147.479 117.144L155.874 112.219L153.122 110.624L144.727 115.479L147.479 117.144Z" fill="#27DEBF"/>
<path d="M164.269 107.364L172.664 102.44L169.843 100.845L161.448 105.7L164.269 107.364Z" fill="#27DEBF"/>
<path d="M122.57 62.005C123.12 61.5195 123.671 61.7276 123.808 62.4212C123.946 63.1148 123.602 64.0857 123.051 64.5712C122.501 65.0567 121.95 64.8487 121.813 64.1551C121.675 63.3922 122.019 62.4212 122.57 62.005Z" fill="#27DEBF"/>
<path d="M128.969 65.0568L123.395 61.797L122.157 64.7793L127.799 68.0391L128.969 65.0568Z" fill="#27DEBF"/>
<path d="M128.143 65.1955C128.694 64.71 129.244 64.918 129.382 65.6116C129.52 66.3052 129.176 67.2762 128.625 67.7617C128.075 68.2472 127.524 68.0391 127.386 67.3455C127.249 66.652 127.593 65.681 128.143 65.1955Z" fill="#27DEBF"/>
<path d="M171.219 92.5915C171.219 92.7302 171.219 92.8689 171.219 93.0076C171.219 93.285 171.219 93.5625 171.219 93.8399C170.118 93.3544 168.673 93.4931 167.022 94.4641C163.512 96.4754 160.691 101.469 160.691 105.561C160.691 107.434 161.31 108.821 162.343 109.584C162.067 109.792 161.792 110 161.448 110.139C161.31 110.208 161.242 110.277 161.104 110.277L160.141 113.953L154.498 110.763C152.709 109.723 151.608 107.503 151.608 104.382C151.608 98.0706 156.012 90.4414 161.379 87.3203C164.063 85.7945 166.471 85.5864 168.26 86.6268L173.765 89.7478C173.834 89.7478 173.834 89.8172 173.903 89.8172L171.219 92.5915Z" fill="#455A64"/>
<path d="M173.972 89.7478C173.903 89.7478 173.903 89.6784 173.834 89.6784C172.045 88.7074 169.705 88.9155 167.022 90.4414C161.586 93.5624 157.251 101.261 157.251 107.503C157.251 110.694 158.352 112.913 160.141 113.884C161.93 114.924 164.338 114.716 167.022 113.19C172.389 110.069 176.793 102.371 176.793 96.1286C176.862 93.0076 175.761 90.7881 173.972 89.7478ZM167.091 109.168C165.233 110.277 163.512 110.277 162.411 109.445C161.379 108.752 160.76 107.364 160.76 105.422C160.76 101.33 163.581 96.4061 167.091 94.3254C168.673 93.4237 170.118 93.2156 171.288 93.7011C172.596 94.256 173.49 95.7818 173.49 98.0013C173.421 102.232 170.6 107.156 167.091 109.168Z" fill="#37474F"/>
<path d="M173.421 98.14C173.421 102.232 170.6 107.156 167.091 109.237C165.233 110.347 163.513 110.347 162.412 109.514C161.586 108.89 160.966 107.85 160.829 106.463C161.035 106.393 161.311 106.255 161.517 106.116C165.026 104.105 167.848 99.111 167.848 95.0189C167.848 94.6721 167.848 94.3947 167.779 94.1173C169.086 93.4931 170.325 93.4931 171.219 93.8399C172.596 94.3947 173.421 95.9206 173.421 98.14Z" fill="#263238"/>
<path d="M171.563 93.9786C171.563 93.9786 171.495 93.9786 171.495 93.9092C170.325 93.285 168.811 93.4237 167.091 94.3947C163.581 96.4061 160.76 101.4 160.76 105.492C160.76 107.573 161.448 108.96 162.618 109.653C163.788 110.277 165.37 110.208 167.091 109.168C170.6 107.156 173.421 102.163 173.421 98.0706C173.421 96.0593 172.664 94.6721 171.563 93.9786ZM167.091 107.781C165.577 108.682 164.269 108.682 163.306 107.989C162.48 107.434 161.999 106.324 161.999 104.798C161.999 101.538 164.269 97.5158 167.091 95.9206C168.398 95.1576 169.568 95.0189 170.462 95.4351C171.563 95.9206 172.183 97.0996 172.183 98.9029C172.183 102.163 169.912 106.116 167.091 107.781Z" fill="#27DEBF"/>
<path d="M161.448 100.221C161.448 100.221 175.417 92.1059 177.275 90.9962C179.133 89.9559 173.077 83.6444 168.673 83.2282C164.269 82.8121 161.379 83.9218 161.379 83.9218C161.379 83.9218 164.751 88.2913 164.201 90.7881C163.719 93.2156 161.448 100.221 161.448 100.221Z" fill="#27DEBF"/>
<path d="M139.084 74.1425C139.084 74.1425 161.999 85.7945 163.031 86.488C163.994 87.1816 163.031 95.2964 161.448 100.151C159.865 105.006 157.457 112.358 156.494 114.508C155.53 116.658 154.223 117.352 151.952 118.739C149.612 120.126 135.437 128.38 135.437 128.38L113.074 131.085L104.197 126.23L106.536 111.595C106.536 111.595 130.276 98.8336 133.579 96.9609C136.814 95.0189 146.378 86.2106 139.084 74.1425Z" fill="#27DEBF"/>
<path opacity="0.2" d="M139.084 74.1425C139.084 74.1425 161.999 85.7945 163.031 86.488C163.994 87.1816 163.031 95.2964 161.448 100.151C159.865 105.006 157.457 112.358 156.494 114.508C155.53 116.658 154.223 117.352 151.952 118.739C149.612 120.126 135.437 128.38 135.437 128.38L113.074 131.085L104.197 126.23L106.536 111.595C106.536 111.595 130.276 98.8336 133.579 96.9609C136.814 95.0189 146.378 86.2106 139.084 74.1425Z" fill="black"/>
<path d="M163.512 97.4464C165.577 91.8285 167.091 87.2509 166.884 84.0605C166.54 80.3846 165.164 77.3329 159.109 75.8071C153.053 74.2812 144.52 74.2812 144.52 74.2812L141.906 75.8071C141.906 75.8071 159.384 86.0025 161.31 87.1122C162.549 87.8058 163.788 90.8575 161.448 100.221C161.448 100.221 161.655 100.359 161.861 100.429C162.136 100.567 162.824 99.2497 163.512 97.4464Z" fill="#27DEBF"/>
<path opacity="0.3" d="M163.512 97.4464C165.577 91.8285 167.091 87.2509 166.884 84.0605C166.54 80.3846 165.164 77.3329 159.109 75.8071C153.053 74.2812 144.52 74.2812 144.52 74.2812L141.906 75.8071C141.906 75.8071 159.384 86.0025 161.31 87.1122C162.549 87.8058 163.788 90.8575 161.448 100.221C161.448 100.221 161.655 100.359 161.861 100.429C162.136 100.567 162.824 99.2497 163.512 97.4464Z" fill="white"/>
<path d="M150.301 80.6621L153.122 79.0668C153.122 79.0668 152.984 69.2182 148.856 66.7907C144.727 64.4325 130.758 66.0277 130.758 66.0277L127.937 67.623L150.301 80.6621Z" fill="#27DEBF"/>
<path d="M141.149 69.0794C139.841 69.8424 139.841 71.0908 141.149 71.9231C142.456 72.686 144.658 72.686 146.034 71.9231C147.342 71.1601 147.342 69.9117 146.034 69.0794C144.658 68.2472 142.456 68.2472 141.149 69.0794Z" fill="#F0F0F0"/>
<path d="M145.415 73.7957C144.452 74.3506 144.452 75.2522 145.415 75.8071C146.378 76.3619 147.892 76.3619 148.856 75.8071C149.819 75.2522 149.819 74.3506 148.856 73.7957C147.892 73.2409 146.378 73.2409 145.415 73.7957Z" fill="#F0F0F0"/>
<path d="M134.612 67.831C133.648 68.3859 133.648 69.2875 134.612 69.8424C135.575 70.3972 137.089 70.3972 138.052 69.8424C139.016 69.2875 139.016 68.3859 138.052 67.831C137.089 67.2762 135.575 67.2762 134.612 67.831Z" fill="#F0F0F0"/>
<path d="M150.645 77.8184C151.195 77.3329 151.746 77.541 151.883 78.2346C152.021 78.9282 151.677 79.8992 151.126 80.3846C150.576 80.8701 150.025 80.6621 149.888 79.9685C149.75 79.2749 150.094 78.3039 150.645 77.8184Z" fill="#27DEBF"/>
<path d="M157.113 80.8701L151.539 77.6104L150.301 80.5927L155.943 83.8525L157.113 80.8701Z" fill="#27DEBF"/>
<path d="M156.287 81.0782C156.838 80.5927 157.388 80.8007 157.526 81.4943C157.663 82.1879 157.319 83.1589 156.769 83.6444C156.218 84.1299 155.668 83.9218 155.53 83.2282C155.393 82.5347 155.737 81.5637 156.287 81.0782Z" fill="#27DEBF"/>
<path d="M156.287 81.0782C156.838 80.5927 157.388 80.8007 157.526 81.4943C157.663 82.1879 157.319 83.1589 156.769 83.6444C156.218 84.1299 155.668 83.9218 155.53 83.2282C155.393 82.5347 155.737 81.5637 156.287 81.0782Z" fill="black"/>
<path d="M108.326 129.143C108.326 129.281 108.326 129.42 108.326 129.559C108.326 129.836 108.326 130.114 108.326 130.391C107.225 129.905 105.78 130.044 104.128 131.015C100.619 133.026 97.7975 138.02 97.7975 142.112C97.7975 143.985 98.4168 145.372 99.449 146.135C99.1737 146.343 98.8985 146.551 98.5544 146.69C98.4168 146.759 98.348 146.829 98.2103 146.829L97.247 150.504L91.6044 147.314C89.8153 146.274 88.7144 144.054 88.7144 140.933C88.7144 134.622 93.1183 126.992 98.4856 123.871C101.169 122.346 103.578 122.137 105.367 123.178L110.872 126.299C110.94 126.299 110.94 126.368 111.009 126.368L108.326 129.143Z" fill="#455A64"/>
<path d="M91.6045 118.115L87.407 132.749L95.802 137.604L100.137 123.039L91.6045 118.115Z" fill="#27DEBF"/>
<path opacity="0.2" d="M91.6045 118.115L87.407 132.749L95.802 137.604L100.137 123.039L91.6045 118.115Z" fill="black"/>
<path d="M91.6045 118.115C91.6045 118.115 96.3525 122.137 100.137 123.108C105.092 124.288 113.005 124.426 115.826 124.634C120.092 124.912 123.327 124.912 124.84 124.357C126.836 123.663 132.066 120.612 133.511 119.71C136.332 118.115 137.502 111.665 129.795 109.931C122.088 108.197 113.968 108.335 113.968 108.335L91.6045 118.115Z" fill="#27DEBF"/>
<path d="M139.016 116.242C138.809 116.52 138.74 117.213 138.534 118.115C138.327 119.016 138.259 119.71 138.396 120.195C138.534 120.612 139.497 121.652 140.736 121.999C141.906 122.346 143.42 122.068 144.796 121.236C146.241 120.404 147.273 119.363 149.337 118.739C151.333 118.184 152.365 117.699 153.328 116.936C154.429 116.034 155.943 113.537 153.81 112.913C151.677 112.358 146.998 114.37 142.731 114.578L139.016 116.242Z" fill="#37474F"/>
<path d="M139.016 113.537V116.728C139.016 116.728 139.291 117.837 140.736 118.045C141.08 118.115 141.424 118.045 141.768 117.907C142.8 117.56 143.488 116.52 143.557 115.34L143.695 113.398H139.016V113.537Z" fill="#FFA8A7"/>
<path d="M145.071 93.7011C145.071 97.7238 143.97 114.924 143.97 114.924C143.97 114.924 142.318 117.005 138.809 114.924L137.639 95.7125L145.071 93.7011Z" fill="#37474F"/>
<path d="M126.629 110.694L137.639 104.313C138.465 103.827 139.153 102.718 139.153 101.816C139.153 100.914 138.465 99.8045 137.639 99.319L129.451 94.5334C128.625 94.0479 127.318 94.0479 126.492 94.5334L115.482 100.914C114.656 101.4 113.968 102.509 113.968 103.411C113.968 104.313 114.656 105.422 115.482 105.908L123.671 110.694C124.496 111.179 125.804 111.179 126.629 110.694Z" fill="#27DEBF"/>
<path d="M126.629 110.694L137.639 104.313C138.465 103.827 139.153 102.718 139.153 101.816C139.153 100.914 138.465 99.8045 137.639 99.319L129.451 94.5334C128.625 94.0479 127.318 94.0479 126.492 94.5334L115.482 100.914C114.656 101.4 113.968 102.509 113.968 103.411C113.968 104.313 114.656 105.422 115.482 105.908L123.671 110.694C124.496 111.179 125.804 111.179 126.629 110.694Z" fill="white"/>
<path d="M115.413 102.718L123.602 107.503C124.428 107.989 125.735 107.989 126.561 107.503L137.571 101.122C138.396 100.637 138.396 99.8739 137.571 99.3884L129.382 94.6028C128.556 94.1173 127.249 94.1173 126.423 94.6028L115.413 100.984C114.588 101.469 114.588 102.232 115.413 102.718Z" fill="#27DEBF"/>
<path d="M122.157 60.2711L120.781 66.0277L114.725 66.4439L116.033 58.3985L122.157 60.2711Z" fill="#FFA8A7"/>
<path d="M127.937 55.9016C127.937 55.9016 128.556 58.3291 128.35 58.4678C128.075 58.6066 127.042 58.4678 127.042 58.4678L127.937 55.9016Z" fill="#F28F8F"/>
<path d="M126.836 48.0643C127.799 49.2434 128.694 51.116 128.006 55.6936C127.249 60.7566 126.354 61.3115 125.597 61.797C124.634 62.4212 120.781 62.0744 119.68 61.3115C118.372 60.3405 116.308 57.2888 115.826 54.2371C115.276 50.6999 116.445 46.7465 119.06 46.1223C122.707 45.1513 126.01 47.0933 126.836 48.0643Z" fill="#FFA8A7"/>
<path d="M115.413 59.9937C116.308 60.9647 118.234 61.2421 119.473 61.4502C120.643 61.6583 124.359 61.9357 125.46 59.3001C126.561 56.6646 125.804 54.7226 127.111 54.0984C128.419 53.4741 129.795 53.058 130.139 52.7112C130.483 52.3644 130.483 48.0643 126.905 45.7755C123.327 43.5561 117.822 43.0013 114.243 47.5788C111.491 51.116 112.592 57.0113 115.413 59.9937Z" fill="#455A64"/>
<path d="M119.06 61.5195C119.955 61.5889 122.914 61.1034 123.808 59.9243C124.703 58.6759 125.047 56.5259 125.184 55.3468C125.322 54.1677 125.873 53.7516 126.767 53.4741C127.662 53.1967 129.588 52.2257 129.588 52.2257V51.6709C129.588 51.6709 131.102 51.6015 131.515 51.6709C131.928 51.7402 131.721 52.3644 130.689 52.9193C129.657 53.4742 126.767 54.5145 126.354 54.8613C125.941 55.2081 125.735 56.7339 125.391 58.3291C124.909 59.7856 123.877 62.2131 119.06 61.5195Z" fill="#37474F"/>
<path d="M127.318 68.0391L130.758 66.0277C131.102 64.9874 130.552 64.5019 129.588 64.5712C128.625 64.6406 128.969 63.739 128.35 63.4615C127.593 63.1148 127.18 63.3228 126.836 63.1841C126.423 62.976 126.354 62.6293 125.941 62.5599C123.946 62.3518 122.638 65.1955 122.638 65.1955L127.318 68.0391Z" fill="#F28F8F"/>
<path d="M103.922 93.5624C103.922 93.5624 119.129 85.9332 121.744 84.7541C124.428 83.5057 128.556 81.7718 130.758 81.7718C132.341 81.7718 133.992 83.367 134.061 85.1702C134.13 86.9735 133.855 89.1929 133.855 89.1929C133.855 89.1929 127.455 91.4124 121.125 92.4527C114.794 93.4237 103.922 93.5624 103.922 93.5624Z" fill="#37474F"/>
<path d="M105.642 89.1236C105.642 92.2447 105.367 95.5738 106.674 97.8626C107.913 100.082 115 105.492 121.675 104.382C126.01 103.619 138.878 97.6545 138.878 97.6545C138.878 97.6545 145.14 95.3657 145.14 93.7012C145.209 91.2737 145.002 87.8752 139.566 88.0139C134.612 88.1526 119.955 91.2043 119.955 91.2043L105.642 89.1236Z" fill="#455A64"/>
<path d="M109.839 64.2245C112.179 61.7276 113.762 61.5196 114.932 61.8663C118.854 62.9067 121.606 64.5713 122.432 64.918C122.432 64.918 121.537 73.7957 125.804 76.3619V90.1639C125.804 90.1639 125.666 91.6898 123.808 93.1463C122.157 94.4641 118.441 95.7819 113.968 95.4351C108.67 95.0189 105.642 89.2623 105.642 89.2623C105.642 89.2623 105.504 77.9571 106.261 73.4489C107.087 68.1085 109.014 65.0568 109.839 64.2245Z" fill="#455A64"/>
<path d="M125.804 76.9168C125.804 76.9168 123.189 74.8361 122.432 72.1311C122.432 72.1311 122.776 76.3619 125.804 78.512V76.9168Z" fill="#37474F"/>
<path d="M149.888 83.4363C150.92 83.575 152.503 83.0202 153.328 82.396C153.328 82.396 154.498 80.0378 156.012 80.2459C156.012 80.2459 156.287 79.2749 155.668 78.9281C155.049 78.5813 154.773 78.7201 154.567 78.3733C154.292 78.0265 154.292 77.4023 153.191 77.4023C152.709 77.4023 152.778 77.0555 151.677 76.9168C150.576 76.7781 149.475 79.3443 148.649 79.3443L149.888 83.4363Z" fill="#FFA8A7"/>
<path d="M122.432 64.8487C126.217 65.4035 127.593 66.5826 128.969 67.831C130.414 69.1488 138.74 77.6103 138.74 77.6103L148.924 79.0668C148.924 79.0668 149.613 79.5523 150.025 80.7314C150.438 81.9105 150.094 83.2282 149.681 83.575C149.681 83.575 139.566 84.1992 137.571 83.7831C135.575 83.4363 125.735 76.778 125.735 76.778C125.735 76.778 122.914 74.9748 122.294 70.8134C121.675 66.7213 122.432 64.8487 122.432 64.8487Z" fill="#455A64"/>
<path d="M113.349 101.469L97.7287 120.681C97.5911 120.681 97.3846 120.75 97.1782 120.75C96.5589 120.75 95.8708 120.612 95.3891 120.334L82.1773 112.636C82.1773 112.636 81.7644 112.428 81.2827 112.081C80.801 111.803 80.3882 110.624 80.3882 109.445V106.185C80.3882 99.3884 83.9664 93.1463 89.8154 89.7478L105.573 80.5927L122.363 90.372L113.349 101.469Z" fill="#27DEBF"/>
<g opacity="0.1">
<path opacity="0.1" d="M113.349 101.469L97.7287 120.681C97.5911 120.681 97.3846 120.75 97.1782 120.75C96.5589 120.75 95.8708 120.612 95.3891 120.334L82.1773 112.636C82.1773 112.636 81.7644 112.428 81.2827 112.081C80.801 111.803 80.3882 110.624 80.3882 109.445V106.185C80.3882 99.3884 83.9664 93.1463 89.8154 89.7478L105.573 80.5927L122.363 90.372L113.349 101.469Z" fill="black"/>
</g>
<path d="M107.982 108.127L122.363 90.4413L105.573 80.662L89.8153 89.8171C87.751 90.9962 85.9619 92.5914 84.5168 94.3947L107.982 108.127Z" fill="#27DEBF"/>
<path d="M122.363 104.59C122.363 105.769 121.95 106.879 121.469 107.226L120.574 107.781L98.9673 120.334C98.6233 120.542 98.1416 120.681 97.7287 120.75C97.5911 120.75 97.3847 120.82 97.1782 120.82V116.103C97.1782 109.306 100.756 103.064 106.605 99.6658L108.394 98.6255L122.363 90.5107V104.59Z" fill="#27DEBF"/>
<g opacity="0.2">
<path opacity="0.2" d="M122.363 104.59C122.363 105.769 121.95 106.879 121.469 107.226L120.574 107.781L98.9673 120.334C98.6233 120.542 98.1416 120.681 97.7287 120.75C97.5911 120.75 97.3847 120.82 97.1782 120.82V116.103C97.1782 109.306 100.756 103.064 106.605 99.6658L108.394 98.6255L122.363 90.5107V104.59Z" fill="black"/>
</g>
<path d="M126.974 128.38H135.437L147.479 121.375L135.644 129.975L126.767 130.114L126.974 128.38Z" fill="#E0E0E0"/>
<path d="M106.468 140.517C106.468 140.517 121.675 134.76 122.983 134.067C124.634 133.165 127.318 130.876 127.318 130.876C127.868 130.391 127.868 128.934 127.111 128.38C127.111 128.38 120.918 128.102 119.336 128.588C118.441 128.865 104.128 133.512 104.128 133.512L106.468 140.517Z" fill="#E0E0E0"/>
<path d="M105.78 134.067C104.541 132.957 103.234 133.443 102.958 135.038C102.683 136.702 103.44 138.922 104.679 139.962C105.917 141.072 107.225 140.586 107.5 138.991C107.844 137.327 107.018 135.107 105.78 134.067Z" fill="#455A64"/>
</svg>
