 <svg  width="198" height="133" viewBox="0 0 198 133" fill="none" xmlns="http://www.w3.org/2000/svg">
        <path d="M0 118.208C0 118.208 59.3007 109.01 101.357 108.016C143.289 107.021 198 118.83 198 118.83C198 118.83 150.609 133 95.1541 133C32.0075 133 0 118.208 0 118.208Z" fill="#ABA5A6"/>
        <path d="M72.6992 7.70654L89.0752 0.870093L134.605 0L133.241 51.5841L90.5639 52.4542L73.8158 44.872L72.6992 7.70654Z" fill="#F8C58A"/>
        <path d="M133.365 50.0925V47.4822L112.026 24.8598L134.605 1.36729V0H133.489L110.786 23.7411L89.0752 0.870094L89.1993 3.48037L109.669 24.7355L86.718 46.9851V49.5953L110.91 25.9785L133.365 50.0925Z" fill="#8D4F22"/>
        <path d="M72.6992 7.70654L89.0752 0.870094L90.5639 52.4542L73.8158 44.872L72.6992 7.70654Z" fill="#D78846"/>
        <path d="M117.361 0.372895V10.6897C120.09 10.5654 122.82 10.4411 125.549 10.0682L125.673 0.248596L117.361 0.372895Z" fill="#885736"/>
        <path d="M122.447 39.0299C118.974 39.4028 115.624 39.6514 112.15 40.0243L112.274 52.0813L122.571 51.8327L122.447 39.0299Z" fill="#885736"/>
        <path d="M105.079 47.6065L93.1692 47.2336L93.0451 40.0243L104.955 40.2729L105.079 47.6065Z" fill="#EAECED"/>
        <path d="M94.4098 46.4879H93.7895L93.6654 41.143H94.2857L94.4098 46.4879Z" fill="#515151"/>
        <path d="M94.5338 46.4879H94.2857L94.1617 41.143H94.4098L94.5338 46.4879Z" fill="#515151"/>
        <path d="M95.0301 46.4879H94.7819L94.6579 41.143H94.906L95.0301 46.4879Z" fill="#515151"/>
        <path d="M95.5263 46.4879H95.2782L95.1541 41.143H95.4022L95.5263 46.4879Z" fill="#515151"/>
        <path d="M96.0225 46.6121L95.7744 46.4878L95.6504 41.143H96.0225V46.6121Z" fill="#515151"/>
        <path d="M96.5188 46.6121H96.2707L96.1466 41.143H96.3947L96.5188 46.6121Z" fill="#515151"/>
        <path d="M96.891 46.6121H96.7669L96.6429 41.2673H96.891V46.6121Z" fill="#515151"/>
        <path d="M97.5113 46.6121H97.1391L97.015 41.2673H97.3872L97.5113 46.6121Z" fill="#515151"/>
        <path d="M97.8834 46.6121H97.7594L97.6353 41.2673H97.8834V46.6121Z" fill="#515151"/>
        <path d="M98.3797 46.6121H98.2556L98.1316 41.2673H98.3797V46.6121Z" fill="#515151"/>
        <path d="M98.8759 46.6121H98.7519L98.6278 41.2673H98.8759V46.6121Z" fill="#515151"/>
        <path d="M99.4962 46.6121H99.1241L99 41.2673H99.3722L99.4962 46.6121Z" fill="#515151"/>
        <path d="M99.8684 46.6121H99.7444L99.6203 41.2673H99.8684V46.6121Z" fill="#515151"/>
        <path d="M100.365 46.7364H100.241L100.117 41.2673H100.365V46.7364Z" fill="#515151"/>
        <path d="M100.861 46.7364H100.737L100.613 41.2673H100.861V46.7364Z" fill="#515151"/>
        <path d="M101.357 46.7364H100.861V41.2673H101.357V46.7364Z" fill="#515151"/>
        <path d="M101.853 46.7364H101.729L101.605 41.2673L101.853 41.3916V46.7364Z" fill="#515151"/>
        <path d="M102.35 46.7364H102.226L102.102 41.3916H102.35V46.7364Z" fill="#515151"/>
        <path d="M102.846 46.7364H102.722L102.598 41.3916H102.846V46.7364Z" fill="#515151"/>
        <path d="M103.342 46.7364H103.218L103.094 41.3916H103.342V46.7364Z" fill="#515151"/>
        <path d="M103.838 46.7364H103.342L103.218 41.3916H103.838V46.7364Z" fill="#515151"/>
        <path d="M104.459 46.8607H104.211L104.086 41.3916H104.335L104.459 46.8607Z" fill="#515151"/>
        <path opacity="0.32" d="M104.831 30.0804C99.1241 26.7243 94.6579 22.0009 91.5564 17.1533L92.1767 50.2168H132.124L132.248 35.9224C122.82 36.9168 112.523 34.4308 104.831 30.0804Z" fill="#EEB87A"/>
        <path d="M100.737 43.7533L117.113 36.9168L162.519 36.0467L161.278 87.6308L118.477 88.5009L101.853 80.7944L100.737 43.7533Z" fill="#F8C58A"/>
        <path d="M161.278 86.0149L161.402 83.529L139.94 60.9065L162.519 37.414V36.0467H161.526L138.823 59.6635L117.113 36.9168L117.237 39.4028L137.707 60.7822L114.756 83.0318V85.6421L138.947 62.0252L161.278 86.0149Z" fill="#8D4F22"/>
        <path d="M100.737 43.7533L117.113 36.9168L118.477 88.5009L101.853 80.7944L100.737 43.7533Z" fill="#D78846"/>
        <path d="M147.383 36.2953V47.8551C150.113 47.7308 152.842 47.6065 155.571 47.2336L155.695 36.171L147.383 36.2953Z" fill="#885736"/>
        <path d="M150.485 75.0766C147.011 75.4495 143.662 75.6981 140.312 76.071L140.436 88.128L150.733 87.8794L150.485 75.0766Z" fill="#885736"/>
        <path d="M133.117 83.6533L121.207 83.2804L121.083 76.071L132.992 76.3196L133.117 83.6533Z" fill="#EAECED"/>
        <path d="M122.447 82.5346H121.827L121.703 77.1897H122.323L122.447 82.5346Z" fill="#515151"/>
        <path d="M122.571 82.5346H122.323L122.199 77.1897H122.447L122.571 82.5346Z" fill="#515151"/>
        <path d="M122.944 82.5346H122.82L122.695 77.1897H122.944V82.5346Z" fill="#515151"/>
        <path d="M123.44 82.5346H123.316L123.192 77.1897H123.44V82.5346Z" fill="#515151"/>
        <path d="M124.06 82.5346H123.812L123.688 77.1897H123.936L124.06 82.5346Z" fill="#515151"/>
        <path d="M124.432 82.5346H124.184V77.1897H124.432V82.5346Z" fill="#515151"/>
        <path d="M124.929 82.5346H124.68V77.1897H124.929V82.5346Z" fill="#515151"/>
        <path d="M125.549 82.5346H125.177L125.053 77.1897H125.425L125.549 82.5346Z" fill="#515151"/>
        <path d="M125.921 82.6589H125.673V77.1897H125.921V82.6589Z" fill="#515151"/>
        <path d="M126.417 82.6589H126.169V77.1897H126.417V82.6589Z" fill="#515151"/>
        <path d="M126.914 82.6589H126.665V77.1897L126.914 77.314V82.6589Z" fill="#515151"/>
        <path d="M127.534 82.6589H127.162L127.038 77.314H127.41L127.534 82.6589Z" fill="#515151"/>
        <path d="M127.906 82.6589H127.658V77.314H127.782L127.906 82.6589Z" fill="#515151"/>
        <path d="M128.402 82.6589H128.154V77.314H128.402V82.6589Z" fill="#515151"/>
        <path d="M128.899 82.6589H128.65V77.314H128.899V82.6589Z" fill="#515151"/>
        <path d="M129.395 82.6589H128.899L128.774 77.314H129.271L129.395 82.6589Z" fill="#515151"/>
        <path d="M129.891 82.7832L129.643 82.6589V77.314H129.891V82.7832Z" fill="#515151"/>
        <path d="M130.387 82.7832H130.139V77.314H130.387V82.7832Z" fill="#515151"/>
        <path d="M130.883 82.7832H130.635V77.314H130.883V82.7832Z" fill="#515151"/>
        <path d="M131.38 82.7832H131.132V77.314H131.38V82.7832Z" fill="#515151"/>
        <path d="M131.876 82.7832H131.256V77.314L131.752 77.4383L131.876 82.7832Z" fill="#515151"/>
        <path d="M132.372 82.7832H132.124V77.4383H132.372V82.7832Z" fill="#515151"/>
        <path opacity="0.32" d="M132.744 66.0028C127.038 62.6467 122.571 57.9234 119.47 53.0757L120.09 86.1393H159.914L160.038 71.8449C150.857 72.9636 140.436 70.4776 132.744 66.0028Z" fill="#EEB87A"/>
        <path d="M28.0376 35.7981L48.1353 28.9617L104.086 28.0916L102.474 79.6757L49.8722 80.5458L29.2782 72.8392L28.0376 35.7981Z" fill="#F8C58A"/>
        <path d="M102.474 78.0598L102.598 75.5738L76.297 52.9514L104.086 29.4589V28.0916H102.722L74.8083 51.7084L48.1353 28.9617L48.2594 31.4477L73.4436 52.8271L45.282 75.0766V77.6869L74.9323 54.0701L102.474 78.0598Z" fill="#8D4F22"/>
        <path d="M28.0376 35.7981L48.1353 28.9617L49.8722 80.5458L29.2782 72.8392L28.0376 35.7981Z" fill="#D78846"/>
        <path d="M55.5789 28.8374V38.657C58.9286 38.5327 62.2782 38.4084 65.7519 38.0355L65.8759 28.5888L55.5789 28.8374Z" fill="#885736"/>
        <path d="M89.1992 67.1215C84.9812 67.4944 80.7631 67.743 76.5451 68.1159L76.7932 80.1729L89.4474 79.9243L89.1992 67.1215Z" fill="#885736"/>
        <path opacity="0.32" d="M67.3647 58.0477C60.2932 54.6916 54.8346 49.9682 50.9887 45.1206L51.7331 78.1841H100.861L101.109 63.8897C89.6955 65.0084 76.9173 62.5224 67.3647 58.0477Z" fill="#EEB87A"/>
        <path d="M125.549 82.5346L139.071 76.3196L175.669 74.4551L174.677 118.581L139.195 120.943L125.301 114.728L125.549 82.5346Z" fill="#F8C58A"/>
        <path d="M125.549 82.5346L139.071 76.3196L139.195 120.943L125.301 114.728L125.549 82.5346Z" fill="#D78846"/>
        <path d="M149.368 83.1561C152.47 82.9075 155.571 82.7832 158.673 82.4103L158.797 75.3252L149.492 75.8224L149.368 83.1561Z" fill="#885736"/>
        <path d="M165.868 108.016C163.015 108.389 160.286 108.762 157.432 109.135V119.7L165.868 119.203V108.016Z" fill="#885736"/>
        <path d="M151.353 116.095L141.429 116.22L141.553 109.88L151.353 109.756V116.095Z" fill="#EAECED"/>
        <path d="M142.545 115.474H142.049V110.75H142.545V115.474Z" fill="#515151"/>
        <path d="M142.669 115.474H142.421V110.75H142.669V115.474Z" fill="#515151"/>
        <path d="M143.041 115.474H142.793L142.917 110.75H143.041V115.474Z" fill="#515151"/>
        <path d="M143.414 115.474H143.289V110.75H143.414V115.474Z" fill="#515151"/>
        <path d="M143.91 115.474H143.662V110.75H143.91V115.474Z" fill="#515151"/>
        <path d="M144.282 115.474H144.034V110.75H144.282V115.474Z" fill="#515151"/>
        <path d="M144.654 115.474H144.53V110.75H144.654V115.474Z" fill="#515151"/>
        <path d="M145.15 115.474H144.778V110.75H145.15V115.474Z" fill="#515151"/>
        <path d="M145.523 115.474H145.274V110.75H145.523V115.474Z" fill="#515151"/>
        <path d="M145.895 115.474H145.647L145.771 110.75H145.895V115.474Z" fill="#515151"/>
        <path d="M146.267 115.474H146.143V110.75H146.391L146.267 115.474Z" fill="#515151"/>
        <path d="M146.763 115.474H146.515V110.75H146.763V115.474Z" fill="#515151"/>
        <path d="M147.135 115.474H146.887L147.011 110.75H147.135V115.474Z" fill="#515151"/>
        <path d="M147.508 115.474H147.383V110.75H147.508V115.474Z" fill="#515151"/>
        <path d="M148.004 115.474H147.756V110.75H148.004V115.474Z" fill="#515151"/>
        <path d="M148.376 115.474H148.004V110.75H148.376V115.474Z" fill="#515151"/>
        <path d="M148.748 115.474H148.624V110.75L148.748 110.626V115.474Z" fill="#515151"/>
        <path d="M149.244 115.474H148.996V110.626H149.244V115.474Z" fill="#515151"/>
        <path d="M149.617 115.474H149.368L149.492 110.626H149.617V115.474Z" fill="#515151"/>
        <path d="M149.989 115.474H149.865V110.626H149.989V115.474Z" fill="#515151"/>
        <path d="M150.361 115.474H149.989V110.626H150.485L150.361 115.474Z" fill="#515151"/>
        <path d="M150.857 115.35L150.609 115.474L150.733 110.626H150.857V115.35Z" fill="#515151"/>
        <path opacity="0.32" d="M151.353 100.682C146.639 97.9477 143.165 93.9701 140.684 89.9925L140.56 118.706L173.56 117.338L173.684 104.908C166.117 106.151 157.68 104.287 151.353 100.682Z" fill="#EEB87A"/>
        <path d="M58.4323 64.2626L81.7556 55.5617H141.677L139.94 122.062L82.2519 125.293L58.4323 115.35V64.2626Z" fill="#F8C58A"/>
        <path d="M58.4323 64.2626L81.7556 55.5617L82.2519 125.293L58.4323 115.35V64.2626Z" fill="#D78846"/>
        <path d="M129.519 70.4776V55.5617H114.508V70.9748C119.47 70.8505 124.556 70.7262 129.519 70.4776Z" fill="#885736"/>
        <path d="M105.203 109.756L105.327 124.05L119.098 123.18L118.974 108.637C114.383 109.01 109.793 109.383 105.203 109.756Z" fill="#885736"/>
        <path d="M102.474 111.372H85.9737V121.316H102.474V111.372Z" fill="#EAECED"/>
        <path d="M87.8346 112.864H86.9662V120.197H87.8346V112.864Z" fill="#515151"/>
        <path d="M87.9586 112.864H87.5865V120.197H87.9586V112.864Z" fill="#515151"/>
        <path d="M88.5789 112.864H88.2068V120.197H88.5789V112.864Z" fill="#515151"/>
        <path d="M89.3233 112.864H88.9511V120.197H89.3233V112.864Z" fill="#515151"/>
        <path d="M90.1917 112.864H89.6955V120.197H90.1917V112.864Z" fill="#515151"/>
        <path d="M90.688 112.864H90.3158V120.197H90.688V112.864Z" fill="#515151"/>
        <path d="M91.4323 112.864H91.0602V120.197H91.4323V112.864Z" fill="#515151"/>
        <path d="M92.1767 112.864H91.5564V120.197H92.1767V112.864Z" fill="#515151"/>
        <path d="M92.797 112.864H92.4248V120.197H92.797V112.864Z" fill="#515151"/>
        <path d="M93.4173 112.864H93.0451V120.197H93.4173V112.864Z" fill="#515151"/>
        <path d="M94.1616 112.864H93.7895V120.197H94.1616V112.864Z" fill="#515151"/>
        <path d="M94.906 112.864H94.2857V120.197H94.906V112.864Z" fill="#515151"/>
        <path d="M95.5263 112.864H95.1541V120.197H95.5263V112.864Z" fill="#515151"/>
        <path d="M96.1466 112.864H95.7744V120.197H96.1466V112.864Z" fill="#515151"/>
        <path d="M96.891 112.864H96.5188V120.197H96.891V112.864Z" fill="#515151"/>
        <path d="M97.3872 112.864H96.7669V120.197H97.3872V112.864Z" fill="#515151"/>
        <path d="M98.2557 112.864H97.8835V120.197H98.2557V112.864Z" fill="#515151"/>
        <path d="M98.876 112.864H98.5038V120.197H98.876V112.864Z" fill="#515151"/>
        <path d="M99.6203 112.864H99.2481V120.197H99.6203V112.864Z" fill="#515151"/>
        <path d="M100.241 112.864H99.8684V120.197H100.241V112.864Z" fill="#515151"/>
        <path d="M100.985 112.864H100.117V120.197H100.985V112.864Z" fill="#515151"/>
        <path d="M101.729 112.864H101.357V120.197H101.729V112.864Z" fill="#515151"/>
        <path opacity="0.32" d="M102.474 94.2187C94.6579 89.8682 88.703 83.4047 84.609 77.0654V121.937L138.327 120.197L138.575 101.428C126.541 103.044 112.771 100.061 102.474 94.2187Z" fill="#EEB87A"/>
        <path d="M15.1353 79.0542L30.3947 71.3477L73.0714 68.986L71.8308 120.694L33.4962 123.429L17.8647 116.593L15.1353 79.0542Z" fill="#F8C58A"/>
        <path d="M15.1353 79.0542L30.3947 71.3477L33.4962 123.429L17.8647 116.593L15.1353 79.0542Z" fill="#D78846"/>
        <path d="M35.109 81.9131C38.7068 81.6645 42.1805 81.4159 45.7782 81.043L45.6541 70.4776L34.8609 71.0991L35.109 81.9131Z" fill="#885736"/>
        <path d="M62.1541 109.01C59.0526 109.507 55.9511 109.88 52.8496 110.378L53.2218 122.062L62.4022 121.44L62.1541 109.01Z" fill="#885736"/>
        <path d="M46.5226 118.084L35.7293 118.208L35.3571 111.123L46.2744 110.999L46.5226 118.084Z" fill="#EAECED"/>
        <path d="M36.8459 117.463H36.2256L35.9774 112.242L36.5977 112.118L36.8459 117.463Z" fill="#515151"/>
        <path d="M36.9699 117.463H36.7218L36.4737 112.118H36.5978L36.9699 117.463Z" fill="#515151"/>
        <path d="M37.3421 117.463H37.094L36.8459 112.118H37.094L37.3421 117.463Z" fill="#515151"/>
        <path d="M37.8383 117.463H37.5902L37.3421 112.118H37.5902L37.8383 117.463Z" fill="#515151"/>
        <path d="M38.3346 117.463H38.0865L37.8383 112.118H38.0865L38.3346 117.463Z" fill="#515151"/>
        <path d="M38.7068 117.338L38.4586 117.463L38.2105 112.118H38.4586L38.7068 117.338Z" fill="#515151"/>
        <path d="M39.203 117.338H38.9549L38.7068 112.118H38.9549L39.203 117.338Z" fill="#515151"/>
        <path d="M39.6992 117.338H39.3271L39.0789 112.118H39.4511L39.6992 117.338Z" fill="#515151"/>
        <path d="M40.0714 117.338H39.8233L39.5752 112.118H39.8233L40.0714 117.338Z" fill="#515151"/>
        <path d="M40.4436 117.338H40.3196L40.0714 112.118H40.3196L40.4436 117.338Z" fill="#515151"/>
        <path d="M40.9398 117.338H40.6917L40.4436 112.118H40.6917L40.9398 117.338Z" fill="#515151"/>
        <path d="M41.4361 117.338H41.0639L40.8158 112.118H41.188L41.4361 117.338Z" fill="#515151"/>
        <path d="M41.8083 117.338H41.6842L41.4361 112.118H41.5602L41.8083 117.338Z" fill="#515151"/>
        <path d="M42.3045 117.338H42.0564L41.8083 112.118H42.0564L42.3045 117.338Z" fill="#515151"/>
        <path d="M42.8007 117.338H42.5526L42.3045 112.118H42.5526L42.8007 117.338Z" fill="#515151"/>
        <path d="M43.1729 117.338H42.6767L42.5526 112.118H42.9248L43.1729 117.338Z" fill="#515151"/>
        <path d="M43.6692 117.338H43.4211L43.1729 112.118H43.4211L43.6692 117.338Z" fill="#515151"/>
        <path d="M44.0414 117.338H43.9173L43.6692 111.993H43.9173L44.0414 117.338Z" fill="#515151"/>
        <path d="M44.5376 117.338H44.2895L44.1654 111.993H44.2895L44.5376 117.338Z" fill="#515151"/>
        <path d="M45.0338 117.338H44.7857L44.5376 111.993H44.7857L45.0338 117.338Z" fill="#515151"/>
        <path d="M45.406 117.338H44.9098L44.6617 111.993H45.282L45.406 117.338Z" fill="#515151"/>
        <path d="M45.9023 117.338H45.6541L45.5301 111.993H45.6541L45.9023 117.338Z" fill="#515151"/>
        <path opacity="0.32" d="M45.9023 100.682C40.5677 97.5748 36.3496 92.8514 33.2481 88.0037L34.985 120.943L70.7143 119.451L70.8384 105.53C62.4023 106.897 52.9737 104.908 45.9023 100.682Z" fill="#EEB87A"/>
        <path opacity="0.1" d="M174.677 114.479L175.669 74.4551L161.526 75.2009L162.519 37.414V36.0467H161.402L155.571 36.171H154.579L133.613 36.5439L134.481 1.36729V0H133.365L125.425 0.124299L117.113 0.248598L89.0752 0.870093L72.6992 7.70654L73.3195 28.5888L65.7519 28.7131L55.5789 28.8374L48.1353 28.9617L28.0376 35.7981L29.2782 71.9692L15.1353 79.0542L17.8647 115.722C6.94737 117.09 0 118.208 0 118.208C0 118.208 32.0075 133 95.1541 133C150.733 133 198 118.83 198 118.83C198 118.83 188.571 116.841 174.677 114.479Z" fill="url(#paint0_radial)"/>
        <defs>
        <radialGradient id="paint0_radial" cx="0" cy="0" r="1" gradientUnits="userSpaceOnUse" gradientTransform="translate(114.5 61.6162) scale(84.2561 84.4183)">
        <stop stop-color="#FFC9BD"/>
        <stop offset="0.1536" stop-color="#E6B2AD"/>
        <stop offset="0.5533" stop-color="#A87B87"/>
        <stop offset="0.8466" stop-color="#82596F"/>
        <stop offset="1" stop-color="#734C66"/>
        </radialGradient>
        </defs>
        </svg>