
<svg  viewBox="0 0 300 210" fill="none" xmlns="http://www.w3.org/2000/svg">
<path d="M4.96548 94.0932C4.96548 94.0932 15.3463 57.0241 51.7748 47.5976C88.2032 38.171 141.508 68.9983 171.314 51.6739C201.055 34.4132 217.613 1.22929 249.265 0.0191269C280.917 -1.19103 323.587 55.3044 284.102 89.7621C261.748 109.252 240.413 101.099 188.127 131.608C137.687 160.971 134.376 193.135 84.382 206.32C52.3479 214.791 36.3627 206.256 32.9237 204.282C12.6715 192.753 6.74869 168.805 3.24595 154.729C-3.12265 129.124 1.208 106.895 4.96548 94.0932Z" fill="#E8F4FF"/>
<g opacity="0.46">
<path opacity="0.46" d="M260.474 61.4181H123.804C122.339 61.4181 121.32 60.0805 121.702 58.6793L134.439 9.6359C134.694 8.68051 135.586 7.97989 136.541 7.97989H273.148C274.612 7.97989 275.631 9.31743 275.249 10.7187L262.512 59.762C262.321 60.7174 261.493 61.4181 260.474 61.4181Z" fill="#BFD9FF"/>
<g opacity="0.46">
<path opacity="0.46" d="M142.591 18.49H190.101" stroke="#A9C2FF" stroke-width="3.4455" stroke-miterlimit="10" stroke-linecap="round" stroke-linejoin="round"/>
<path opacity="0.46" d="M138.897 40.4003H186.471" stroke="#A9C2FF" stroke-width="3.4455" stroke-miterlimit="10" stroke-linecap="round" stroke-linejoin="round"/>
<path opacity="0.46" d="M158.895 32.1202H206.468" stroke="#A9C2FF" stroke-width="3.4455" stroke-miterlimit="10" stroke-linecap="round" stroke-linejoin="round"/>
<path opacity="0.46" d="M141.381 25.8139H155.647" stroke="#A9C2FF" stroke-width="3.4455" stroke-miterlimit="10" stroke-linecap="round" stroke-linejoin="round"/>
<path opacity="0.46" d="M139.407 32.1202H153.673" stroke="#A9C2FF" stroke-width="3.4455" stroke-miterlimit="10" stroke-linecap="round" stroke-linejoin="round"/>
<path opacity="0.46" d="M197.68 18.49H214.62" stroke="#A9C2FF" stroke-width="3.4455" stroke-miterlimit="10" stroke-linecap="round" stroke-linejoin="round"/>
<path opacity="0.46" d="M205.959 50.718H180.675C180.548 50.718 180.484 50.5906 180.484 50.4633L181.631 46.1326C181.631 46.0689 181.758 46.0052 181.822 46.0052H207.105C207.233 46.0052 207.296 46.1326 207.296 46.26L206.15 50.5906C206.15 50.6543 206.086 50.718 205.959 50.718Z" stroke="#84AEE5" stroke-width="1.1485" stroke-miterlimit="10"/>
<path opacity="0.46" d="M174.498 50.718H149.214C149.087 50.718 149.023 50.5906 149.023 50.4633L150.17 46.1326C150.17 46.0689 150.297 46.0052 150.361 46.0052H175.644C175.772 46.0052 175.835 46.1326 175.835 46.26L174.689 50.5906C174.689 50.6543 174.625 50.718 174.498 50.718Z" stroke="#84AEE5" stroke-width="1.1485" stroke-miterlimit="10"/>
</g>
<path opacity="0.46" d="M250.475 44.4129C249.202 42.6932 243.916 41.4194 242.451 39.6997C241.687 38.808 241.687 37.152 241.878 35.8144C242.387 35.496 242.833 35.1775 243.088 34.859C243.534 34.2221 244.043 33.3304 244.489 32.375C244.616 32.5024 244.807 32.6298 245.126 32.6298C245.826 32.6298 248.437 28.9993 247.737 28.1713C247.355 27.7255 246.718 28.1076 246.272 28.5535C246.973 26.9611 247.482 25.751 247.482 25.751C247.546 25.5599 247.61 25.3688 247.673 25.1141C248.692 20.9103 246.145 17.5346 242.005 17.5346C237.802 17.5346 233.599 20.9103 232.516 25.1141C232.452 25.3051 232.452 25.4962 232.389 25.751C232.389 25.751 232.261 26.9611 232.197 28.5535C231.943 28.1076 231.561 27.7255 230.924 28.1713C229.841 28.9993 230.669 32.5661 231.37 32.6298C231.624 32.6298 231.879 32.5024 232.07 32.375C232.07 33.3304 232.134 34.2221 232.261 34.859C232.389 35.2412 232.771 35.6233 233.216 36.0692C232.707 37.4067 231.879 38.9354 230.796 39.7634C228.504 41.4831 222.581 42.7569 220.416 44.4766C218.505 46.0053 216.722 50.5911 216.403 51.4828H251.049C251.112 50.5274 251.622 45.9416 250.475 44.4129Z" fill="#8DBCF8"/>
</g>
<path d="M236.719 100.398H100.049C98.5841 100.398 97.5651 99.0609 97.9472 97.6597L110.684 48.6163C110.939 47.6609 111.831 46.9603 112.786 46.9603H249.393C250.858 46.9603 251.876 48.2978 251.494 49.6991L238.757 98.7424C238.566 99.6978 237.674 100.398 236.719 100.398Z" stroke="#7094D8" stroke-width="1.1485" stroke-miterlimit="10"/>
<path d="M234.108 96.7683H97.5014C96.0366 96.7683 95.0176 95.4308 95.3997 94.0296L108.137 44.9862C108.392 44.0308 109.283 43.3302 110.239 43.3302H246.845C248.31 43.3302 249.329 44.6677 248.947 46.069L236.21 95.1123C236.019 96.0677 235.127 96.7683 234.108 96.7683Z" fill="#A5C5FF"/>
<path d="M140.362 96.7683H208.761" stroke="#7094D8" stroke-width="1.1485" stroke-miterlimit="10"/>
<path d="M121.384 43.3302H179.147" stroke="#7094D8" stroke-width="1.1485" stroke-miterlimit="10"/>
<path d="M223.09 89.4437H192.394C190.993 89.4437 190.101 88.2972 190.483 86.896L198.253 55.8139C198.635 54.4127 200.036 53.2662 201.437 53.2662H232.134C233.535 53.2662 234.427 54.4127 234.044 55.8139L226.275 86.896C225.956 88.2972 224.492 89.4437 223.09 89.4437Z" fill="#B7DEFF"/>
<path d="M207.997 89.5711L210.672 78.807L206.277 76.9599C206.277 76.9599 198.062 79.9535 197.361 80.7178C196.788 81.3547 193.795 87.5966 192.903 89.6347H207.997V89.5711Z" fill="#023F61"/>
<path d="M223.218 89.5711C223.281 87.5329 223.472 81.291 223.218 80.6541C222.899 79.9535 216.149 76.8962 216.149 76.8962L210.799 78.7433L208.124 89.5074H223.218V89.5711Z" fill="#023F61"/>
<path d="M210.799 89.5701L215.002 80.2082L205.959 80.7177L205.067 89.5701H210.799Z" fill="#BEBECF"/>
<path d="M207.933 74.9217L205.959 76.1956L204.685 79.3165L204.367 83.5203L207.105 82.3738L209.271 84.9852L212.136 82.6286L213.92 84.2846L216.594 78.5522L216.085 75.0491L215.002 74.5396L207.933 74.9217Z" fill="#DEE0E8"/>
<path d="M208.57 66.769C208.57 66.769 207.933 65.2405 206.532 66.2595C205.195 67.2785 206.787 71.0996 207.742 69.9533C208.697 68.8069 208.57 66.769 208.57 66.769Z" fill="#FB8E74"/>
<path d="M218.187 66.7053C218.187 66.7053 219.46 65.1131 220.479 66.0047C221.435 66.8963 218.25 70.9722 217.741 69.8896C217.231 68.8069 218.187 66.7053 218.187 66.7053Z" fill="#FB8E74"/>
<path d="M215.193 77.9153L216.595 70.5269L208.57 71.2276L206.787 78.1701C206.787 78.1701 208.188 81.4184 209.716 82.8833C209.653 82.947 214.366 78.8707 215.193 77.9153Z" fill="#FB8877"/>
<path d="M221.689 63.7115C221.371 64.6032 220.67 64.858 220.607 65.3675C220.543 65.8771 220.225 67.2146 219.715 67.7242C219.206 68.2337 218.951 68.4248 218.951 68.4248C218.951 68.4248 212.073 70.3356 208.57 67.6605C208.57 67.6605 208.315 66.6414 208.57 65.4312C208.825 64.2211 208.252 64.03 208.888 63.3931C209.589 62.8198 209.78 62.2466 209.78 61.6097C209.78 60.909 209.844 60.1447 210.544 59.4441C211.245 58.7435 211.882 58.9983 212.519 58.425C212.519 58.425 213.538 56.769 214.875 56.5142C216.212 56.3232 219.015 55.6225 220.67 57.6607C222.326 59.6989 221.562 61.4823 222.071 62.1192C222.517 62.8198 221.689 63.7115 221.689 63.7115Z" fill="#713336"/>
<path d="M208.506 65.4947C208.506 65.4947 205.258 74.4754 211.372 75.1123C216.786 75.2397 218.696 68.6156 219.46 65.2399C220.225 61.8642 219.779 58.2974 215.448 58.4248C211.117 58.5522 208.952 63.5202 208.506 65.4947Z" fill="#FBA990"/>
<path d="M210.162 62.3101C210.162 62.3101 210.544 63.0107 210.162 63.7751C209.78 64.4757 208.761 64.7941 208.634 65.7495C208.506 66.7049 208.061 68.6794 207.742 68.8068C207.487 68.8705 207.678 66.896 207.678 66.1954C207.742 65.4948 208.252 62.6286 209.716 60.7815C211.181 58.9344 212.073 58.1701 214.62 57.7879C217.168 57.3421 219.142 58.4249 219.842 60.0172C220.543 61.6095 219.397 65.5585 219.397 65.5585C219.397 65.5585 219.588 63.6477 218.951 63.2018C218.314 62.756 217.804 62.4375 217.868 62.1827C217.996 61.928 215.83 62.8834 213.665 62.1827C211.5 61.4821 210.863 61.8006 210.481 62.0554C210.29 62.1827 210.162 62.3101 210.162 62.3101Z" fill="#713336"/>
<path d="M204.112 79.3802C204.048 79.5713 201.119 86.5775 201.119 86.5775L203.73 87.8513L203.029 89.3163" stroke="#022755" stroke-width="0.4884" stroke-miterlimit="10"/>
<path d="M216.849 79.3802C216.785 79.5713 216.276 86.5775 216.276 86.5775L213.028 87.8513V89.3163" stroke="#022755" stroke-width="0.4884" stroke-miterlimit="10"/>
<path d="M223.09 89.4437H192.394C190.993 89.4437 190.101 88.2972 190.483 86.896L198.253 55.8139C198.635 54.4127 200.036 53.2662 201.437 53.2662H232.134C233.535 53.2662 234.427 54.4127 234.044 55.8139L226.275 86.896C225.956 88.2972 224.492 89.4437 223.09 89.4437Z" stroke="white" stroke-width="1.1485" stroke-miterlimit="10"/>
<path d="M116.225 55.0496H163.799" stroke="#73A5FF" stroke-width="3.4455" stroke-miterlimit="10" stroke-linecap="round" stroke-linejoin="round"/>
<path d="M112.595 77.0236H160.105" stroke="#73A5FF" stroke-width="3.4455" stroke-miterlimit="10" stroke-linecap="round" stroke-linejoin="round"/>
<path d="M132.592 68.6799H180.102" stroke="#73A5FF" stroke-width="3.4455" stroke-miterlimit="10" stroke-linecap="round" stroke-linejoin="round"/>
<path d="M115.015 62.3743H129.281" stroke="#73A5FF" stroke-width="3.4455" stroke-miterlimit="10" stroke-linecap="round" stroke-linejoin="round"/>
<path d="M113.041 68.6799H127.306" stroke="#73A5FF" stroke-width="3.4455" stroke-miterlimit="10" stroke-linecap="round" stroke-linejoin="round"/>
<path d="M171.314 55.0496H188.318" stroke="#73A5FF" stroke-width="3.4455" stroke-miterlimit="10" stroke-linecap="round" stroke-linejoin="round"/>
<path d="M179.656 87.2776H154.373C154.246 87.2776 154.182 87.1503 154.182 87.0229L155.328 82.6922C155.328 82.6285 155.456 82.5649 155.519 82.5649H180.803C180.93 82.5649 180.994 82.6922 180.994 82.8196L179.847 87.1503C179.784 87.2139 179.72 87.2776 179.656 87.2776Z" stroke="#7094D8" stroke-width="1.1485" stroke-miterlimit="10"/>
<path d="M148.195 87.2776H122.912C122.785 87.2776 122.721 87.1503 122.721 87.0229L123.867 82.6922C123.867 82.6285 123.995 82.5649 124.058 82.5649H149.342C149.469 82.5649 149.533 82.6922 149.533 82.8196L148.387 87.1503C148.387 87.2139 148.259 87.2776 148.195 87.2776Z" stroke="#7094D8" stroke-width="1.1485" stroke-miterlimit="10"/>
<path d="M177.3 37.8526H206.914" stroke="#7094D8" stroke-width="1.1485" stroke-miterlimit="10"/>
<path d="M235.573 166.703H98.9661C97.5013 166.703 96.4823 165.365 96.8645 163.964L109.602 114.921C109.856 113.965 110.748 113.265 111.703 113.265H248.31C249.775 113.265 250.794 114.602 250.412 116.003L237.674 165.047C237.483 166.066 236.592 166.703 235.573 166.703Z" fill="#BFD9FF"/>
<path d="M117.69 123.838H165.263" stroke="#A9C2FF" stroke-width="3.4455" stroke-miterlimit="10" stroke-linecap="round" stroke-linejoin="round"/>
<path d="M114.06 145.748H161.57" stroke="#A9C2FF" stroke-width="3.4455" stroke-miterlimit="10" stroke-linecap="round" stroke-linejoin="round"/>
<path d="M134.057 137.468H181.567" stroke="#A9C2FF" stroke-width="3.4455" stroke-miterlimit="10" stroke-linecap="round" stroke-linejoin="round"/>
<path d="M116.48 131.098H130.745" stroke="#A9C2FF" stroke-width="3.4455" stroke-miterlimit="10" stroke-linecap="round" stroke-linejoin="round"/>
<path d="M114.505 137.468H128.771" stroke="#A9C2FF" stroke-width="3.4455" stroke-miterlimit="10" stroke-linecap="round" stroke-linejoin="round"/>
<path d="M172.778 123.838H189.782" stroke="#A9C2FF" stroke-width="3.4455" stroke-miterlimit="10" stroke-linecap="round" stroke-linejoin="round"/>
<path d="M181.121 156.066H155.838C155.71 156.066 155.647 155.938 155.647 155.811L156.793 151.48C156.793 151.417 156.92 151.353 156.984 151.353H182.268C182.395 151.353 182.459 151.48 182.459 151.608L181.312 155.938C181.249 156.002 181.185 156.066 181.121 156.066Z" stroke="#84AEE5" stroke-width="1.1485" stroke-miterlimit="10"/>
<path d="M149.66 156.066H124.377C124.249 156.066 124.186 155.938 124.186 155.811L125.332 151.48C125.332 151.417 125.46 151.353 125.523 151.353H150.807C150.934 151.353 150.998 151.48 150.998 151.608L149.851 155.938C149.851 156.002 149.724 156.066 149.66 156.066Z" stroke="#84AEE5" stroke-width="1.1485" stroke-miterlimit="10"/>
<path d="M225.574 149.761C224.3 148.041 219.014 146.767 217.55 145.047C216.785 144.156 216.785 142.5 216.976 141.162C217.486 140.844 217.932 140.525 218.186 140.207C218.632 139.57 219.142 138.678 219.588 137.723C219.715 137.85 219.906 137.977 220.224 137.977C220.925 137.977 223.536 134.347 222.836 133.519C222.453 133.073 221.817 133.455 221.371 133.901C222.071 132.309 222.581 131.099 222.581 131.099C222.644 130.908 222.708 130.717 222.772 130.462C223.791 126.258 221.243 122.882 217.104 122.882C212.9 122.882 208.697 126.258 207.615 130.462C207.551 130.653 207.551 130.844 207.487 131.099C207.487 131.099 207.36 132.309 207.296 133.901C207.041 133.455 206.659 133.073 206.022 133.519C204.94 134.347 205.768 137.914 206.468 137.977C206.723 137.977 206.978 137.85 207.169 137.723C207.169 138.678 207.232 139.57 207.36 140.207C207.487 140.589 207.869 140.971 208.315 141.417C207.806 142.754 206.978 144.283 205.895 145.111C203.602 146.831 197.68 148.105 195.514 149.824C193.604 151.353 191.82 155.939 191.502 156.831H226.147C226.211 155.811 226.72 151.289 225.574 149.761Z" fill="#8DBCF8"/>
<path d="M111.258 166.958H169.276" stroke="#7094D8" stroke-width="1.1485" stroke-miterlimit="10"/>
<path d="M182.586 166.958H196.724" stroke="#7094D8" stroke-width="1.1485" stroke-miterlimit="10"/>
<path d="M243.661 113.583H248.565C250.029 113.583 251.048 114.984 250.603 116.385L248.501 123.136" stroke="#7094D8" stroke-width="1.1485" stroke-miterlimit="10"/>
<path d="M88.3942 27.4065H85.9105C85.2736 27.4065 84.8915 26.897 85.0826 26.2601L85.7194 23.7764C85.8468 23.1395 86.4836 22.63 87.1205 22.63H89.6043C90.2411 22.63 90.6233 23.1395 90.4322 23.7764L89.7953 26.2601C89.668 26.897 89.0311 27.4065 88.3942 27.4065Z" fill="#BFD9FF"/>
<path d="M86.5473 34.7304H84.0636C83.4267 34.7304 83.0446 34.2209 83.2356 33.584L83.8725 31.1003C83.9999 30.4634 84.6367 29.9539 85.2736 29.9539H87.7573C88.3942 29.9539 88.7763 30.4634 88.5853 31.1003L87.9484 33.584C87.821 34.2209 87.1842 34.7304 86.5473 34.7304Z" fill="#EDF4FF"/>
<path d="M94.5081 34.7304H92.0244C91.3875 34.7304 91.0054 34.2209 91.1964 33.584L91.8333 31.1003C91.9607 30.4634 92.5975 29.9539 93.2344 29.9539H95.7182C96.355 29.9539 96.7371 30.4634 96.5461 31.1003L95.9092 33.584C95.7818 34.2209 95.145 34.7304 94.5081 34.7304Z" fill="#BFD9FF"/>
<path d="M102.469 34.7304H99.9851C99.3482 34.7304 98.9661 34.2209 99.1571 33.584L99.794 31.1003C99.9214 30.4634 100.558 29.9539 101.195 29.9539H103.679C104.316 29.9539 104.698 30.4634 104.507 31.1003L103.87 33.584C103.743 34.2209 103.106 34.7304 102.469 34.7304Z" fill="#EDF4FF"/>
<path d="M84.7004 42.2469H82.2166C81.5798 42.2469 81.1976 41.7374 81.3887 41.1005L82.0256 38.6168C82.1529 37.9799 82.7898 37.4704 83.4267 37.4704H85.9104C86.5473 37.4704 86.9294 37.9799 86.7383 38.6168L86.1015 41.1005C85.9741 41.7374 85.3373 42.2469 84.7004 42.2469Z" fill="#EDF4FF"/>
<path d="M82.7261 50.2076H80.2424C79.6055 50.2076 79.2234 49.6981 79.4145 49.0613L80.0513 46.5775C80.1787 45.9407 80.8156 45.4312 81.4524 45.4312H83.9362C84.573 45.4312 84.9551 45.9407 84.7641 46.5775L84.1272 49.0613C83.9362 49.6981 83.2993 50.2076 82.7261 50.2076Z" fill="#EDF4FF"/>
<path d="M92.6612 42.2469H90.1774C89.5406 42.2469 89.1585 41.7374 89.3495 41.1005L89.9864 38.6168C90.1138 37.9799 90.7506 37.4704 91.3875 37.4704H93.8712C94.5081 37.4704 94.8902 37.9799 94.6992 38.6168L94.0623 41.1005C93.9349 41.7374 93.2981 42.2469 92.6612 42.2469Z" fill="#EDF4FF"/>
<path d="M89.1584 56.1956H86.6746C86.0378 56.1956 85.6557 55.6861 85.8467 55.0492L86.4836 52.5655C86.6109 51.9286 87.2478 51.4191 87.8847 51.4191H90.3684C91.0053 51.4191 91.3874 51.9286 91.1964 52.5655L90.5595 55.0492C90.4321 55.6861 89.7953 56.1956 89.1584 56.1956Z" fill="#BFD9FF"/>
<path d="M128.516 12.8212C128.516 12.8212 128.453 12.8212 128.516 12.8212C128.453 12.8212 128.389 12.8212 128.389 12.8212C128.134 12.8212 127.88 12.8212 127.625 12.8212C120.237 12.8212 112.722 18.7446 110.748 26.133L110.684 26.5151C110.684 26.5788 110.684 26.5788 110.684 26.6425L110.621 26.8973C108.965 34.3493 113.805 40.3365 121.511 40.018C128.516 39.7632 135.586 34.1583 137.687 27.2158C139.853 19.6363 135.649 13.3308 128.516 12.8212ZM133.611 26.8973C132.147 31.8016 127.052 35.8143 122.084 35.9417C116.735 36.1327 113.423 31.9927 114.505 26.7699L114.633 26.133C116.034 20.9739 121.32 16.8339 126.542 16.8339C126.797 16.8339 127.052 16.8339 127.306 16.8975C132.338 17.2797 135.203 21.6108 133.611 26.8973Z" fill="#EBEDFC"/>
<path d="M127.752 15.1141C127.497 16.0058 127.943 16.8338 128.771 17.0886C132.847 18.1714 135.012 22.184 133.548 26.8973C132.083 31.8016 126.988 35.8142 122.02 35.9416C117.117 36.069 113.932 32.6296 114.251 28.1074C114.314 27.152 113.678 26.5151 112.659 26.5151C111.449 26.5151 110.175 27.6616 110.111 28.8717C109.665 35.3684 114.251 40.2727 121.256 40.0179C128.262 39.7632 135.331 34.1582 137.432 27.2157C139.47 20.528 136.414 14.7956 130.618 13.267C129.535 12.8849 128.071 13.8403 127.752 15.1141Z" fill="#A5C5FF"/>
<path d="M162.27 11.4838C162.206 11.4838 162.143 11.4838 162.079 11.4838C161.824 11.4838 161.57 11.4838 161.315 11.4838C153.8 11.4838 146.221 17.5346 144.374 25.0504C142.527 32.5661 147.049 38.6169 154.564 38.6169C154.819 38.6169 155.074 38.6169 155.328 38.6169C155.392 38.6169 155.456 38.6169 155.456 38.6169C155.456 38.6169 155.456 38.6169 155.519 38.6169C162.652 38.1074 169.658 32.3113 171.505 25.1777C171.505 25.114 171.505 25.114 171.568 25.0504C173.288 17.8531 169.212 11.9297 162.27 11.4838ZM156.22 34.5406C156.029 34.5406 155.838 34.5406 155.71 34.5406C155.647 34.5406 155.583 34.5406 155.519 34.5406C150.233 34.5406 147.049 30.2732 148.323 24.9867C149.66 19.7002 155.01 15.4328 160.296 15.4328C160.36 15.4328 160.423 15.4328 160.487 15.4328C160.614 15.4328 160.805 15.4328 160.933 15.4328C160.933 15.4328 160.933 15.4328 160.996 15.4328C165.9 15.7512 168.766 19.8912 167.492 24.9867C167.492 25.0504 167.492 25.0504 167.429 25.114C166.155 30.1458 161.251 34.2221 156.22 34.5406Z" fill="white"/>
<path d="M166.919 26.77C165.263 30.5916 161.442 33.6488 157.43 34.3495C156.411 34.5405 155.519 35.3686 155.265 36.3239C154.946 37.5978 155.838 38.5532 157.175 38.2984C162.907 37.2793 168.257 32.9482 170.677 27.4707C171.186 26.2605 170.549 25.114 169.276 25.114C168.32 25.114 167.301 25.8146 166.919 26.77Z" fill="#BFD9FF"/>
<path d="M243.621 79.4597C248.894 74.803 250.224 67.6934 246.593 63.58C242.961 59.4665 235.742 59.9069 230.469 64.5635C225.196 69.2202 223.865 76.3298 227.497 80.4432C231.129 84.5567 238.348 84.1163 243.621 79.4597Z" fill="#73A5FF"/>
<path d="M253.66 84.0932C253.214 85.8127 251.494 87.1501 249.838 87.1501C248.119 87.1501 247.1 85.749 247.546 84.0932C247.992 82.3736 249.711 81.0362 251.367 81.0362C253.023 80.9725 254.105 82.3736 253.66 84.0932Z" fill="#73A5FF"/>
<path d="M234.172 77.7242C233.79 77.7242 233.471 77.5968 233.28 77.3421L230.35 73.4568C229.968 72.9473 230.159 72.0556 230.86 71.4823C231.561 70.9728 232.388 70.9728 232.834 71.4823L235 74.3485L242.769 68.1703C243.47 67.6608 244.298 67.6608 244.744 68.1703C245.126 68.6799 244.935 69.5716 244.234 70.1448L235.254 77.2784C234.872 77.5968 234.49 77.7242 234.172 77.7242Z" fill="white"/>
<mask id="mask0" mask-type="alpha" maskUnits="userSpaceOnUse" x="0" y="0" width="300" height="210">
<path d="M4.96548 94.0932C4.96548 94.0932 15.3463 57.0241 51.7748 47.5976C88.2032 38.171 141.508 68.9983 171.314 51.6739C201.055 34.4132 217.613 1.22929 249.265 0.0191269C280.917 -1.19103 323.587 55.3044 284.102 89.7621C261.748 109.252 240.413 101.099 188.127 131.608C137.687 160.971 134.376 193.135 84.382 206.32C52.3479 214.791 36.3627 206.256 32.9237 204.282C12.6715 192.753 6.74869 168.805 3.24595 154.729C-3.12265 129.124 1.208 106.895 4.96548 94.0932Z" fill="#E8F4FF"/>
</mask>
<g mask="url(#mask0)">
<path d="M45.1514 210.587C45.1514 210.587 44.0687 204.6 50.3736 202.562C56.7422 200.524 57.9523 203.454 59.8629 208.995C61.7735 214.536 58.207 261.35 58.207 261.35C58.207 261.35 50.8831 262.624 49.0362 261.478C49.0362 261.478 43.4955 230.969 43.8777 222.625C44.2598 214.154 45.1514 210.587 45.1514 210.587Z" fill="#3D4776"/>
<path d="M46.2341 93.1378C46.2341 93.1378 41.0119 93.4563 37.8276 105.367C34.6432 117.277 32.6053 131.799 33.7516 135.557C34.898 139.315 47.3805 149.506 52.0295 149.506C56.6786 149.506 56.9971 146.003 56.1055 143.137C55.2138 140.207 46.2341 132.373 46.2341 132.373C46.2341 132.373 53.4943 109.125 53.1759 103.01C52.9212 96.9594 49.4184 93.1378 46.2341 93.1378Z" fill="#7E78C7"/>
<path d="M111.703 89.6343L110.812 89.698L112.786 85.8769C112.786 85.8769 117.754 85.5584 118.518 87.6601L116.225 92.6913L111.703 89.6343Z" fill="#FF8D68"/>
<path d="M114.442 78.6789C114.442 78.6789 114.251 74.73 115.652 74.2204C117.053 73.6472 118.645 74.73 118.645 74.73C118.645 74.73 120.938 74.4752 121.638 75.4943C122.339 76.4497 122.275 77.9146 122.275 77.9146C122.275 77.9146 123.549 78.1694 123.867 79.4432C124.186 80.6534 123.613 83.01 123.613 83.01C123.613 83.01 122.148 84.7934 120.428 84.3476C118.709 83.838 114.442 78.6789 114.442 78.6789Z" fill="#FF7759"/>
<path d="M111.895 81.8642C111.895 81.8642 111.385 76.7051 111.895 76.0682C112.468 75.3676 118.136 67.5334 118.136 67.5334C118.136 67.5334 119.282 68.8709 118.645 70.3995C117.945 71.9282 115.27 76.5777 115.27 76.5777V80.5267C115.27 80.463 113.487 81.6731 111.895 81.8642Z" fill="#FF7759"/>
<path d="M112.277 86.0034C112.277 86.0034 110.939 77.7233 111.831 76.5769C112.786 75.4304 117.308 76.131 118.136 76.4495C119.027 76.7679 121.384 79.8889 121.702 81.099C122.021 82.3092 119.792 86.704 118.39 87.6594C117.117 88.6148 113.105 87.532 112.277 86.0034Z" fill="#FF8D68"/>
<path d="M109.092 91.4178L110.812 88.2335C110.812 88.2335 114.888 87.5329 116.926 90.7172C117.499 91.8636 117.244 91.8636 117.244 91.8636L115.907 94.4747L109.092 91.4178Z" fill="#DEE0E8"/>
<path d="M67.76 56.4505C67.76 56.4505 72.027 57.5333 74.5107 64.1574C76.9308 70.7814 75.3386 84.7938 73.6828 86.4498C72.027 88.1058 67.1231 87.4689 60.3087 85.2396C53.1122 82.883 50.6284 75.3673 49.3547 70.3992C46.871 60.8453 55.0865 51.1004 67.76 56.4505Z" fill="#FF8D68"/>
<path d="M52.3479 92.8831L55.8506 80.3993C55.8506 80.3993 62.7924 78.3611 67.1868 83.0107L68.6515 85.0489V93.2015C68.5878 93.1378 61.3276 94.6028 52.3479 92.8831Z" fill="#FF8D68"/>
<path d="M42.604 160.143C42.604 160.143 39.9929 175.365 42.604 192.817C45.2151 210.269 50.4374 211.988 55.2138 211.988C59.9903 211.988 61.3277 198.04 62.1556 191.925C63.0472 185.811 66.4863 164.919 59.9903 160.143C53.4943 155.302 46.1067 154.856 42.604 160.143Z" fill="#3D4776"/>
<path d="M60.8819 180.588C60.8819 180.588 55.6596 166.639 64.8304 160.525C74.0012 154.41 80.943 155.302 83.1083 165.302C85.2736 175.301 85.7194 209.759 82.6625 216.702C79.6056 223.708 68.7153 212.816 60.8819 180.588Z" fill="#3D4776"/>
<path d="M76.1028 57.0878C76.1028 57.0878 78.1408 59.7629 76.9307 62.8838C75.7207 66.0048 71.1353 67.2149 71.1353 67.2149C71.1353 67.2149 72.6001 69.2531 71.1353 72.1829L70.1163 73.839C70.1163 73.839 71.5811 77.151 71.1353 77.979C70.7532 78.807 69.2884 78.6159 69.2884 78.6159C69.2884 78.6159 67.6326 74.0937 66.9957 74.4759C66.3589 74.858 64.703 76.9599 64.703 78.807C64.703 80.6541 65.3399 82.119 64.8941 83.3292C64.512 84.5393 58.0797 84.5393 55.4049 84.1572C52.73 83.775 48.5904 75.495 47.5715 71.8008C47.5715 71.8008 46.1067 66.6417 48.2083 62.3106C48.2083 62.3106 47.8262 58.6164 51.3289 54.8585C54.8317 51.1644 65.9767 52.3745 67.8236 53.8395C67.8236 53.8395 67.6326 51.8013 69.6705 52.1834C71.7722 52.5019 74.8928 54.4127 76.1028 57.0878Z" fill="#C53A45"/>
<path d="M69.9253 75.8133C69.9253 75.8133 69.2885 73.1384 67.0595 74.3485C64.7668 75.5585 67.4416 81.9908 69.3522 81.545C71.1991 81.1629 70.3711 76.8322 69.9253 75.8133Z" fill="#FF7759"/>
<path d="M50.501 92.819C50.501 92.819 51.4563 89.3799 52.3479 89.1252C53.2395 88.8067 63.9387 87.6604 69.7979 91.1631C72.409 93.2011 72.0906 94.6659 72.0906 94.6659C72.0906 94.6659 54.7679 91.2905 50.501 92.819Z" fill="#DEE0E8"/>
<path d="M48.272 91.9914C48.272 91.9914 66.2952 90.8449 79.0324 96.3225C84.8278 99.2523 98.1382 112.373 98.1382 112.373L108.583 90.5901C108.583 90.5901 114.442 88.4883 116.798 94.0295C116.798 94.0295 110.175 119.761 104.698 127.85C101.195 130.78 84.5731 121.29 84.5731 121.29C84.5731 121.29 87.1842 154.983 86.2926 170.079C85.1462 173.008 62.474 174.41 58.3981 174.155C54.3222 173.836 40.1202 169.187 39.8017 168.359C39.4833 167.467 41.8397 132.627 41.2665 128.551C40.6934 124.475 38.9738 104.475 39.547 101.545C40.1202 98.6791 42.7313 93.1378 48.272 91.9914Z" fill="#7E78C7"/>
<path d="M69.1611 211.543C69.1611 211.543 68.7153 205.428 75.275 204.154C81.8347 202.817 82.6626 205.874 84 211.543C85.3374 217.211 76.6124 263.388 76.6124 263.388C76.6124 263.388 69.2248 263.834 67.4416 262.497C67.4416 262.497 65.2763 231.542 66.55 223.262C67.8874 214.982 69.1611 211.543 69.1611 211.543Z" fill="#3D4776"/>
<path d="M59.1624 177.34C59.1624 177.34 65.2762 196.957 69.8616 206.511" stroke="#2A2E59" stroke-width="1.026" stroke-miterlimit="10"/>
<path d="M71.5812 210.46C71.5812 210.46 75.275 208.294 78.9688 210.46" stroke="#2A2E59" stroke-width="1.026" stroke-miterlimit="10"/>
<path d="M48.0173 207.785C48.0173 207.785 50.4374 205.619 55.8507 207.976" stroke="#2A2E59" stroke-width="1.026" stroke-miterlimit="10"/>
<path d="M49.8005 210.014C49.8005 210.014 53.3033 208.294 56.5513 210.905" stroke="#2A2E59" stroke-width="1.026" stroke-miterlimit="10"/>
<path d="M75.8481 176.257C75.8481 176.257 80.8157 179.186 82.7899 174.537" stroke="#2A2E59" stroke-width="1.026" stroke-miterlimit="10"/>
<path d="M80.8157 176.83C80.8157 176.83 83.1084 194.855 82.5352 206.766" stroke="#2A2E59" stroke-width="1.026" stroke-miterlimit="10"/>
<path d="M39.5471 109.125L41.8398 134.092" stroke="#524B81" stroke-width="1.026" stroke-miterlimit="10"/>
<path d="M79.4146 117.851C79.4146 117.851 96.6098 130.271 104.698 127.85" stroke="#524B81" stroke-width="1.026" stroke-miterlimit="10"/>
<path d="M99.8578 114.793C99.8578 114.793 103.361 116.768 103.106 121.353" stroke="#524B81" stroke-width="1.026" stroke-miterlimit="10"/>
<path d="M99.0299 113.074C99.0299 113.074 102.724 111.991 104.889 115.685" stroke="#524B81" stroke-width="1.026" stroke-miterlimit="10"/>
<path d="M78.7777 98.0422C78.7777 98.0422 69.6069 102.819 75.7208 113.965" stroke="#524B81" stroke-width="1.026" stroke-miterlimit="10"/>
<path d="M65.7858 83.5203C65.7858 83.5203 67.3142 87.4688 72.4091 86.7682" stroke="#E66657" stroke-width="1.026" stroke-miterlimit="10"/>
<path d="M115.079 75.4948L116.798 73.9663C116.798 73.9663 118.008 73.9663 118.645 74.7306" stroke="#E66657" stroke-width="1.026" stroke-miterlimit="10"/>
<path d="M117.117 75.7496C117.117 75.6222 119.537 74.3485 119.537 74.3485C119.537 74.3485 121.766 74.9217 122.084 76.068C122.403 77.2144 122.148 77.8512 122.148 77.8512" stroke="#E66657" stroke-width="1.026" stroke-miterlimit="10"/>
<path d="M119.983 77.8516C120.11 77.7879 123.039 77.979 123.039 77.979C123.039 77.979 124.122 78.6795 124.122 80.1443C124.058 81.5454 123.613 82.9465 123.613 82.9465C123.613 82.9465 122.53 84.4749 120.747 84.4113" stroke="#E66657" stroke-width="1.026" stroke-miterlimit="10"/>
<path d="M121.702 80.9088C121.702 80.9088 122.084 81.482 121.575 82.5647C121.129 83.6473 120.556 86.3859 118.454 87.6596" stroke="#E66657" stroke-width="1.026" stroke-miterlimit="10"/>
<path d="M59.9266 61.9911C55.6597 59.8894 50.2463 62.4369 50.2463 62.4369C50.2463 62.4369 50.8832 59.6347 53.9401 58.6157" stroke="#A03A45" stroke-width="1.368" stroke-miterlimit="10"/>
<path d="M50.4374 64.1577C50.4374 64.1577 51.52 64.0303 52.9211 66.1956" stroke="#A03A45" stroke-width="1.368" stroke-miterlimit="10"/>
<path d="M69.1611 54.4124C69.1611 54.4124 74.5108 55.304 74.7018 60.6537" stroke="#A03A45" stroke-width="1.368" stroke-miterlimit="10"/>
</g>
</svg>
