  <svg width="148" height="161" viewBox="0 0 148 161" fill="none" xmlns="http://www.w3.org/2000/svg">
                    <path opacity="0.32" d="M0 153.401C0 153.401 81.3378 138.459 133.573 154.646C133.573 154.521 52.3597 167.72 0 153.401Z" fill="url(#paint0_radial)"/>
                    <path d="M77 5C77 5 8.47769 3.53592 13.2443 10.2756C15.7311 12.4051 34.4437 12.8741 80 9.88587C80 9.75595 80.1574 5.38977 77 5Z" fill="#34283B"/>
                    <path d="M74.995 7.71985L112.057 135.222H117.281L81.2135 5.60312L74.995 7.71985Z" fill="#34283B"/>
                    <path d="M83.8252 5.22957C83.8252 8.09338 81.711 10.4591 78.9748 10.4591C76.363 10.4591 74.1244 8.09338 74.1244 5.22957C74.1244 2.36576 76.363 0 79.0992 0C81.7109 0 83.8252 2.36576 83.8252 5.22957Z" fill="#34283B"/>
                    <path d="M41.4152 55.5331L47.2605 74.8327L80.716 67.3619C80.716 67.3619 114.42 63.3774 113.923 63.0039C113.301 62.6303 106.958 41.463 106.958 41.463L72.5076 39.3463L41.4152 55.5331Z" fill="#F8C58A"/>
                    <path d="M41.4152 55.5331L47.2605 74.8327L80.716 67.3619L72.5076 39.3463L41.4152 55.5331Z" fill="#D78846"/>
                    <path d="M93.4017 44.0778L94.7698 49.5564L106.087 50.0545L104.719 44.7004L93.4017 44.0778Z" fill="#885736"/>
                    <path d="M47.6336 61.8833L56.4639 58.2724L54.7227 53.5408L46.1412 57.4008L47.6336 61.8833Z" fill="#EAECED"/>
                    <path d="M55.2202 58.1479L55.7177 58.0233L54.3496 54.4124L53.8521 54.537L55.2202 58.1479Z" fill="#515151"/>
                    <path d="M55.0958 58.2724L55.3446 58.1479L53.9765 54.537L53.8521 54.6615L55.0958 58.2724Z" fill="#515151"/>
                    <path d="M54.7227 58.3969L54.9714 58.2724L53.6034 54.786H53.479L54.7227 58.3969Z" fill="#515151"/>
                    <path d="M54.3496 58.5214H54.5984L53.2303 54.9105L53.1059 55.035L54.3496 58.5214Z" fill="#515151"/>
                    <path d="M53.9765 58.7704L54.2252 58.6459L52.8572 55.035L52.6084 55.1595L53.9765 58.7704Z" fill="#515151"/>
                    <path d="M53.6034 58.8949L53.8521 58.7704L52.4841 55.284H52.3597L53.6034 58.8949Z" fill="#515151"/>
                    <path d="M53.2303 59.0195L53.479 58.8949L52.111 55.4086L51.9866 55.5331L53.2303 59.0195Z" fill="#515151"/>
                    <path d="M52.8572 59.144L53.1059 59.0195L51.8622 55.5331L51.4891 55.6576L52.8572 59.144Z" fill="#515151"/>
                    <path d="M52.4841 59.2685H52.7328L51.3647 55.7821H51.2404L52.4841 59.2685Z" fill="#515151"/>
                    <path d="M52.1109 59.5175L52.3597 59.393L50.9916 55.9066L50.8672 56.0311L52.1109 59.5175Z" fill="#515151"/>
                    <path d="M51.7378 59.642L51.9866 59.5175L50.6185 56.0311L50.4941 56.1556L51.7378 59.642Z" fill="#515151"/>
                    <path d="M51.3647 59.7665L51.6135 59.642L50.3698 56.1556L50.121 56.2801L51.3647 59.7665Z" fill="#515151"/>
                    <path d="M50.9916 59.891H51.2404L49.9967 56.4047H49.7479L50.9916 59.891Z" fill="#515151"/>
                    <path d="M50.7429 60.0156H50.8672L49.6235 56.5292L49.4992 56.6537L50.7429 60.0156Z" fill="#515151"/>
                    <path d="M50.3698 60.2646L50.4941 60.1401L49.2504 56.6537L49.1261 56.7782L50.3698 60.2646Z" fill="#515151"/>
                    <path d="M49.9967 60.3891L50.3698 60.2646L49.1261 56.7782L48.753 56.9027L49.9967 60.3891Z" fill="#515151"/>
                    <path d="M49.6236 60.5136L49.7479 60.3891L48.6286 57.0272H48.3799L49.6236 60.5136Z" fill="#515151"/>
                    <path d="M49.2505 60.6381L49.4992 60.5136L48.2555 57.1517L48.1311 57.2763L49.2505 60.6381Z" fill="#515151"/>
                    <path d="M49.0017 60.7626H49.1261L47.8824 57.2763L47.758 57.4008L49.0017 60.7626Z" fill="#515151"/>
                    <path d="M48.6286 60.8872H48.753L47.6336 57.5253H47.3849L48.6286 60.8872Z" fill="#515151"/>
                    <path d="M48.2555 61.0117L48.6286 60.8872L47.5093 57.5253L47.1362 57.6498L48.2555 61.0117Z" fill="#515151"/>
                    <path d="M47.8824 61.2607L48.1311 61.1362L46.8874 57.7743L46.7631 57.8988L47.8824 61.2607Z" fill="#515151"/>
                    <path d="M128.225 55.6576L86.6857 54.6615L40.0471 74.2101L56.3395 136.218L113.301 137.588L148 112.311L128.225 55.6576Z" fill="#F8C58A"/>
                    <path d="M128.225 55.6576L86.6857 54.6615L40.0471 74.2101L56.3395 136.218L113.301 137.588L148 112.311L128.225 55.6576Z" fill="#F8C58A"/>
                    <path opacity="0.32" d="M138.299 91.642C135.314 92.5136 132.081 93.0117 128.847 93.0117C109.57 93.0117 93.4017 77.0739 93.0286 57.8988L89.9193 57.7743L105.341 107.704L144.766 109.946L138.299 91.642Z" fill="#EEB87A"/>
                    <path d="M103.227 109.946L86.6857 54.6615L40.0471 74.2101L56.3395 136.218L113.301 137.588L148 112.311L103.227 109.946Z" fill="#D78846"/>
                    <path d="M103.227 109.946L56.3395 136.218L113.301 137.588L148 112.311L103.227 109.946Z" fill="#AC5E23"/>
                    <path d="M112.057 55.284L128.35 111.315L98.5009 137.214L106.709 137.463L135.563 111.689L118.898 55.5331L112.057 55.284Z" fill="#885736"/>
                    <path d="M128.35 111.315L98.5009 137.214L106.709 137.463L135.563 111.689L128.35 111.315Z" fill="#482513"/>
                    <path d="M111.56 146.802C108.948 151.533 104.222 153.401 100.988 151.16C97.879 148.918 97.3815 143.191 99.9933 138.584C102.605 133.852 107.331 131.984 110.565 134.226C113.798 136.467 114.171 142.195 111.56 146.802Z" fill="#34283B"/>
                    <path d="M114.545 139.331L47.758 139.829L49.1261 133.354L119.768 134.599L114.545 139.331Z" fill="#34283B"/>
                    <path d="M59.4488 135.471L85.8152 120.28C86.1883 120.031 86.6857 119.907 87.0589 119.907H132.205C134.071 119.907 134.941 122.272 133.449 123.517L116.286 137.588L110.938 136.218L127.603 124.265C127.852 124.016 127.728 123.642 127.355 123.642L88.9244 124.016C88.5513 124.016 88.0538 124.14 87.6807 124.389L66.4135 136.342L59.4488 135.471Z" fill="#34283B"/>
                    <path d="M19.6504 5.97665C19.6504 5.97665 1.5 6.5 2.61178 12.9494C2.48741 14.6926 8.45716 15.4397 21.0185 12.5759C21.0185 12.4514 20.521 6.22568 19.6504 5.97665Z" fill="#34283B"/>
                    <path d="M16.4168 10.2101L53.3546 137.588H58.5782L22.5109 8.09338L16.4168 10.2101Z" fill="#34283B"/>
                    <path d="M25.2471 7.59532C25.2471 10.4591 23.1328 12.8249 20.3967 12.8249C17.7849 12.8249 15.5462 10.4591 15.5462 7.59532C15.5462 4.73151 17.6605 2.36575 20.3967 2.36575C23.0084 2.36575 25.2471 4.73151 25.2471 7.59532Z" fill="#34283B"/>
                    <path d="M51.116 125.634L47.758 134.848L51.6135 135.844L53.9765 129.494L51.116 125.634Z" fill="#34283B"/>
                    <path d="M53.9765 151.658C50.3698 158.008 44.0269 160.623 39.7983 157.51C35.5698 154.397 34.9479 146.802 38.5546 140.451C42.1614 134.101 48.5042 131.486 52.7328 134.599C56.9614 137.712 57.4589 145.307 53.9765 151.658Z" fill="#34283B"/>
                    <path d="M49.9967 148.794C48.2555 151.907 45.1462 153.152 43.0319 151.658C40.9176 150.163 40.6689 146.428 42.4101 143.315C44.1513 140.202 47.2605 138.957 49.3748 140.451C51.4891 141.946 51.7378 145.681 49.9967 148.794Z" fill="#CAC7CC"/>
                    <path d="M46.2656 147.3C44.7731 146.179 44.4 143.813 45.2706 141.572C44.4 142.07 43.6538 142.817 43.1563 143.813C41.7883 146.304 41.9126 149.292 43.6538 150.537C45.395 151.782 47.8824 150.661 49.2504 148.171C49.4992 147.798 49.6236 147.549 49.7479 147.175C48.5042 147.922 47.2605 148.047 46.2656 147.3Z" fill="#7E7783"/>
                    <path d="M50.8672 76.2023L53.1059 82.5525L74.995 73.463L73.0051 66.7393L50.8672 76.2023Z" fill="#5A3A2A"/>
                    <path d="M83.079 90.2724L95.2672 83.5486L108.699 87.284L111.684 98.1167L98.7496 94.6303L87.5563 100.482L83.079 90.2724Z" fill="#885736"/>
                    <path d="M83.079 90.2724L95.2672 83.5486L98.7496 94.6303L87.5563 100.482L83.079 90.2724Z" fill="#5A3A2A"/>
                    <path opacity="0.32" d="M134.319 122.272L148 112.311L128.225 55.6576L118.897 55.4086L112.057 55.284H111.187C109.197 49.0584 106.958 41.463 106.958 41.463L91.163 40.4669L82.2084 9.21401C83.2034 8.2179 83.9496 6.84825 83.9496 5.22957C83.9496 2.36576 81.8353 0 79.0992 0C76.6118 0 74.4975 2.11673 74.3731 4.85603C69.3983 6.47471 23 6.5 22 10C22 12.8249 67.0101 10 75.5 10L84.6958 40.0934L72.632 39.3463L41.5395 55.5331L46.3899 71.5953L41.042 73.8366L23.5059 11.5798C24.5009 10.5837 25.2471 9.21401 25.2471 7.59533C25.2471 4.73152 23.1328 2.36576 20.3967 2.36576C17.9093 2.36576 15.795 4.48249 15.6706 7.22179C10.6958 8.84047 2.86053 11.5798 2.73616 12.8249C2.61179 14.4436 7.46221 15.1907 17.2874 13.1984L50.4941 127.502L48.3799 133.354C44.8975 133.479 41.042 136.093 38.5546 140.451C34.9479 146.802 35.5698 154.397 39.7983 157.51C44.0269 160.623 50.4941 158.008 53.9765 151.658C56.2151 147.798 56.837 143.315 55.9664 139.829L99.7445 139.455C97.6303 143.938 98.1278 149.043 101.113 151.16C104.222 153.401 108.948 151.533 111.684 146.802C113.052 144.436 113.55 141.696 113.301 139.331H114.545L116.534 137.588L133.697 123.518C134.071 123.144 134.319 122.77 134.319 122.272Z" fill="url(#paint1_radial)"/>
                    <defs>
                    <radialGradient id="paint0_radial" cx="0" cy="0" r="1" gradientUnits="userSpaceOnUse" gradientTransform="translate(66.7795 153.562) scale(47.3845 55.1861)">
                    <stop stop-color="#FFC9BD"/>
                    <stop offset="0.1536" stop-color="#E6B2AD"/>
                    <stop offset="0.5533" stop-color="#A87B87"/>
                    <stop offset="0.8466" stop-color="#82596F"/>
                    <stop offset="1" stop-color="#734C66"/>
                    </radialGradient>
                    <radialGradient id="paint1_radial" cx="0" cy="0" r="1" gradientUnits="userSpaceOnUse" gradientTransform="translate(95.0241 60.7821) scale(90.8864 90.9916)">
                    <stop stop-color="#FFC9BD"/>
                    <stop offset="0.3911" stop-color="#CB9B9D"/>
                    <stop offset="1" stop-color="#734C66"/>
                    </radialGradient>
                    </defs>
                    </svg>