
<svg width="165" height="134" viewBox="0 0 165 134" fill="none" xmlns="http://www.w3.org/2000/svg">
<g opacity="0.1">
<path d="M110.284 29.3668V35.9227C110.284 35.9227 111.651 35.7216 111.651 32.3029C111.651 28.8439 110.284 29.3668 110.284 29.3668Z" fill="#89AADB"/>
<path d="M115.19 41.9558L114.064 33.952C113.984 33.5096 113.622 33.1476 113.179 33.1074L110.967 32.9063L111.008 32.303L113.22 32.5041C113.984 32.5845 114.587 33.1476 114.668 33.8716L115.794 41.8754L115.19 41.9558Z" fill="#89AADB"/>
<path d="M116.276 44.731L112.536 31.2975C112.214 30.1311 111.168 29.3669 109.962 29.3669H107.911" stroke="#FBFBFB" stroke-width="1.5321" stroke-miterlimit="10"/>
<path d="M107.106 33.8715C107.995 33.8715 108.715 31.6926 108.715 29.0048C108.715 26.3171 107.995 24.1382 107.106 24.1382C106.218 24.1382 105.497 26.3171 105.497 29.0048C105.497 31.6926 106.218 33.8715 107.106 33.8715Z" fill="#FBFBFB"/>
<path d="M123.51 47.967C123.964 45.1601 122.056 42.5171 119.249 42.0636C116.442 41.6101 113.799 43.5178 113.346 46.3247C112.892 49.1316 114.8 51.7746 117.607 52.2281C120.414 52.6816 123.057 50.7738 123.51 47.967Z" fill="#FBFBFB"/>
<path d="M118.086 53.7H113.179C112.174 53.7 111.329 52.8553 111.329 51.8498V42.4785C111.329 41.473 112.174 40.6284 113.179 40.6284H118.086C119.092 40.6284 119.936 41.473 119.936 42.4785V51.8498C119.896 52.8553 119.092 53.7 118.086 53.7Z" fill="#3D5FB5"/>
<path d="M13.7553 99.551H6.39502V104.579H13.7553V99.551Z" fill="#070924"/>
<path d="M137.955 133.215C149.217 133.215 158.347 124.085 158.347 112.824C158.347 101.562 149.217 92.4319 137.955 92.4319C126.693 92.4319 117.563 101.562 117.563 112.824C117.563 124.085 126.693 133.215 137.955 133.215Z" fill="#070924"/>
<path d="M137.955 125.814C145.13 125.814 150.946 119.998 150.946 112.823C150.946 105.649 145.13 99.8323 137.955 99.8323C130.78 99.8323 124.964 105.649 124.964 112.823C124.964 119.998 130.78 125.814 137.955 125.814Z" fill="#89AADB"/>
<path d="M134.174 112.823C134.174 114.915 135.864 116.604 137.955 116.604C140.047 116.604 141.736 114.915 141.736 112.823C141.736 110.732 140.047 109.043 137.955 109.043C135.864 109.043 134.174 110.732 134.174 112.823Z" fill="white"/>
<path d="M138.036 84.5085C152.796 84.5085 164.742 96.4539 164.742 111.215H111.329C111.329 96.4539 123.275 84.5085 138.036 84.5085Z" fill="#365598"/>
<path d="M34.3078 43.5645H7.48096V51.0856H34.3078V43.5645Z" fill="#E6BB5C"/>
<path d="M37.0025 50.9648H4.74597V74.6545H37.0025V50.9648Z" fill="white"/>
<path d="M19.0241 43.5645L17.8979 75.3384" stroke="#070924" stroke-width="1.1344" stroke-miterlimit="10"/>
<path d="M21.4775 43.5645L22.6439 75.3384" stroke="#070924" stroke-width="1.1344" stroke-miterlimit="10"/>
<path d="M0 75.3384H40.9039" stroke="#070924" stroke-width="3.4182" stroke-miterlimit="10"/>
<path d="M13.7553 75.3384L22.8451 82.0149" stroke="#070924" stroke-width="3.4182" stroke-miterlimit="10"/>
<path d="M113.3 42.6797L102.843 48.7127L112.094 69.6272C112.094 69.6272 118.448 80.8888 114.306 90.783C109.64 101.924 104.291 107.756 104.291 107.756H83.497C79.2337 107.756 75.2921 105.624 72.9192 102.125C70.4255 98.465 68.2938 93.3973 70.0233 88.2089C73.1203 78.9583 82.2502 74.6949 82.2502 74.6949H32.0957C32.0957 74.6949 23.3277 77.269 10.3768 99.551H16.1685L53.7744 111.215H103.889C103.889 111.215 109.68 113.145 117.604 100.396L130.474 88.1687C130.474 82.1759 128.544 76.3037 125.004 71.4371L113.3 55.4697V42.6797Z" fill="#3D5FB5"/>
<path d="M74.4475 75.62C75.4932 75.62 76.4987 76.0222 77.2629 76.7462C79.0326 78.4756 82.6926 81.3312 85.3472 78.9583C89.0072 75.7004 85.7494 70.1903 80.1588 70.6729C74.5682 71.1556 56.268 71.236 49.511 67.576C42.754 63.9159 40.1397 63.7148 38.0483 66.0476C35.9166 68.3804 39.2951 74.7754 45.5694 75.62H74.4475Z" fill="#070924"/>
<path d="M36.8819 133.215C48.1439 133.215 57.2735 124.086 57.2735 112.824C57.2735 101.562 48.1439 92.4321 36.8819 92.4321C25.6199 92.4321 16.4903 101.562 16.4903 112.824C16.4903 124.086 25.6199 133.215 36.8819 133.215Z" fill="#070924"/>
<path d="M36.8819 125.815C44.0567 125.815 49.873 119.999 49.873 112.824C49.873 105.649 44.0567 99.8328 36.8819 99.8328C29.7071 99.8328 23.8908 105.649 23.8908 112.824C23.8908 119.999 29.7071 125.815 36.8819 125.815Z" fill="#89AADB"/>
<path d="M33.1012 112.824C33.1012 114.915 34.7904 116.605 36.8819 116.605C38.9733 116.605 40.6626 114.915 40.6626 112.824C40.6626 110.732 38.9733 109.043 36.8819 109.043C34.7904 109.043 33.1012 110.732 33.1012 112.824Z" fill="white"/>
<path d="M8.88867 108.641C8.88867 108.641 11.865 89.2949 33.2219 81.0498C54.5788 72.7644 62.7032 84.4685 63.8294 86.6806C65.7197 90.3406 68.2536 101.321 61.1749 108.641H8.88867Z" fill="#365598"/>
<path d="M24.5745 102.648H48.2642C48.7066 102.648 49.0284 102.286 49.0284 101.884C49.0284 101.441 48.6664 101.12 48.2642 101.12H24.5745C24.1321 101.12 23.8104 101.482 23.8104 101.884C23.8104 102.286 24.1321 102.648 24.5745 102.648Z" fill="#2C487C"/>
<path d="M27.2291 98.8675H46.213C46.6554 98.8675 46.9772 98.5055 46.9772 98.1033C46.9772 97.6609 46.6152 97.3391 46.213 97.3391H27.2291C26.7867 97.3391 26.4649 97.7011 26.4649 98.1033C26.4247 98.5457 26.7867 98.8675 27.2291 98.8675Z" fill="#2C487C"/>
<path d="M29.8836 95.2073H43.478C43.9205 95.2073 44.2422 94.8453 44.2422 94.4431C44.2422 94.0007 43.8802 93.679 43.478 93.679H29.8836C29.4412 93.679 29.1194 94.0409 29.1194 94.4431C29.1194 94.8453 29.4412 95.2073 29.8836 95.2073Z" fill="#2C487C"/>
</g>
<path d="M70.5059 28.8842C68.2134 25.4253 63.387 24.822 60.3302 27.5972C57.7964 29.8897 57.3539 33.7106 59.2845 36.526L65.5588 45.5353L76.2574 37.5315L70.5059 28.8842Z" fill="#070924"/>
<path d="M112.496 45.1331L109.761 41.6742C109.077 40.91 107.991 40.7089 107.106 41.1111L99.5449 44.6102L79.3141 41.9155L76.2976 37.5315L66.7654 44.6505L70.6266 49.7584C71.793 51.327 73.6029 52.1314 75.4128 52.051H75.453L98.5796 51.1259C101.154 52.051 103.124 51.1259 103.124 51.1259L107.146 49.7182L108.072 50.603C108.675 51.1661 109.6 51.2466 110.284 50.8041L111.571 49.9595C111.973 49.678 112.295 49.2758 112.496 48.8334L112.938 47.8278C113.3 46.9028 113.139 45.8571 112.496 45.1331Z" fill="#070924"/>
<path d="M90.0931 106.388V107.917L115.392 107.635V106.107H114.426C114.426 106.107 114.426 102.206 109.64 101.562C104.854 100.919 103.728 101.24 102.642 99.7924C102.039 98.9879 101.837 97.902 101.837 97.1378C101.797 96.6954 101.435 96.3334 100.993 96.3334H100.872V92.5527H103.446H105.176V87.4045H103.446V65.8063V65.6857C103.366 61.6637 100.108 58.446 96.0859 58.446H61.1346C61.1346 58.446 55.9462 73.2068 70.1037 73.2068H89.0072V87.4448H87.5593V92.5929H89.0072H91.4606L91.6215 96.4943C91.1791 96.5345 90.8573 96.8965 90.8573 97.3389L90.978 106.388" fill="#070924"/>
<path d="M71.8734 13.9222L67.047 26.5111L58.6008 24.4599L64.5534 12.7559L71.8734 13.9222Z" fill="#D59395"/>
<path d="M65.8002 12.3538C65.8002 12.3538 65.3175 18.2259 68.4547 22.8512L69.9831 18.7488L65.8002 12.3538Z" fill="#BD7980"/>
<path d="M75.815 7.32624L76.6596 15.7323C76.8607 17.8237 75.3324 19.6336 73.2811 19.8749C70.3048 20.1565 67.4894 18.3868 66.323 15.6116L63.5881 9.21659C62.9848 7.76866 63.9501 6.15986 65.5186 5.99898L72.1952 4.59127C73.4822 4.47061 75.6943 6.0392 75.815 7.32624Z" fill="#D59395"/>
<path d="M76.0563 11.0667L77.7858 13.1581C77.9869 13.5201 77.6249 13.9223 77.1423 13.8821L74.6084 14.3647L76.0563 11.0667Z" fill="#D59395"/>
<path d="M66.5241 7.56763C66.5241 7.56763 69.058 8.49269 68.1732 10.5037C67.4492 12.1929 67.9721 15.2497 70.1842 14.5659C72.3963 13.8822 74.7291 13.2789 76.4585 14.0029L76.9814 16.2954C77.4238 18.1857 76.2976 20.1163 74.3671 20.599C74.3269 20.599 74.2866 20.599 74.2464 20.6392C70.8277 21.4436 65.4382 19.9554 65.5186 13.9626L64.9556 8.41225L66.5241 7.56763Z" fill="#070924"/>
<path d="M64.6338 4.51085C64.0707 4.59129 59.4454 4.47063 59.4052 9.61881C59.3649 12.8766 62.0999 16.5367 62.1401 16.5367C62.1401 16.5367 63.8294 16.416 64.312 14.043C64.4327 13.4397 64.3522 12.9973 64.1109 12.6755L67.6905 8.05023C67.6905 8.05023 66.685 7.28604 68.2536 6.36098C71.069 4.71195 74.2464 5.35548 74.2464 5.35548C73.3616 2.33897 65.1969 4.39019 64.6338 4.51085Z" fill="#070924"/>
<path d="M61.4564 11.67C60.6922 13.7213 62.5021 15.4909 64.3924 14.8876C65.2773 14.6061 65.9208 13.8419 66.0013 12.9169C66.2024 10.9461 64.1109 9.49815 62.2608 10.7048C61.8988 10.9461 61.6173 11.3081 61.4564 11.67Z" fill="#D59395"/>
<path d="M64.0305 11.6299C64.0305 11.6299 62.3412 11.8712 63.1858 13.5202" stroke="#070924" stroke-width="1.0231" stroke-miterlimit="10" stroke-linecap="round" stroke-linejoin="round"/>
<path d="M75.1312 5.11413L84.1405 3.78687C84.3014 3.78687 84.5829 3.82709 84.6634 4.14885C84.784 4.63149 84.4221 4.75215 84.3014 4.79237L75.9356 6.44139C75.5736 6.52184 75.2519 6.28051 75.1714 5.95875C75.091 5.59677 74.7692 5.43589 75.1312 5.35545C75.1312 5.35545 75.091 5.11413 75.1312 5.11413Z" fill="#070924"/>
<path d="M58.9627 10.0612L76.2172 6.44137C76.2172 6.44137 74.4877 -1.60265 65.7197 0.287692C56.9919 2.0976 58.9627 10.0612 58.9627 10.0612Z" fill="#5888CE"/>
<path d="M75.1312 11.1872C75.1312 11.4687 74.8899 11.6698 74.6084 11.6698C74.3268 11.6698 74.1257 11.4285 74.1257 11.1469C74.1257 10.8654 74.3671 10.6643 74.6486 10.6643C74.9704 10.6643 75.1715 10.9056 75.1312 11.1872Z" fill="black"/>
<path d="M75.0106 8.77408C75.1312 9.2165 74.4475 9.37738 73.6431 9.57848C72.8387 9.77958 72.1549 9.90025 72.0745 9.49804C71.9941 9.17628 72.6376 8.89474 73.442 8.69364C74.2464 8.49254 74.9301 8.4121 75.0106 8.77408Z" fill="#070924"/>
<path d="M73.4822 14.968C73.4822 14.968 73.9648 15.8529 75.8552 15.3702" stroke="white" stroke-width="0.7712" stroke-miterlimit="10" stroke-linecap="round" stroke-linejoin="round"/>
<path d="M63.025 22.8913C63.025 22.8913 58.7617 21.6847 56.1876 26.0687C53.1711 31.2571 53.895 39.5023 56.3484 46.1386L57.3942 58.5264H77.826C77.826 58.5264 78.7511 44.8918 74.8095 36.1238C69.6211 24.6208 63.025 22.8913 63.025 22.8913Z" fill="white"/>
<path d="M75.2117 40.0251L78.9924 45.5353C80.6816 47.9887 80.199 51.327 77.9064 53.2576C75.3726 55.3892 71.5516 54.9468 69.5406 52.2923L65.6795 47.1843L75.2117 40.0251Z" fill="#D59395"/>
<path d="M75.1715 40.0252L69.42 31.3778C67.1274 27.9189 62.301 27.3156 59.2443 30.0908C56.7104 32.3834 56.268 36.2043 58.1986 39.0197L64.4729 48.029L75.1715 40.0252Z" fill="white"/>
<path d="M75.2117 40.0252L69.983 32.2627" stroke="#D1D1D1" stroke-width="1.0747" stroke-miterlimit="10"/>
<path d="M65.7197 47.1442L64.4729 48.0291L57.2735 37.1294" stroke="#D1D1D1" stroke-width="1.0747" stroke-miterlimit="10"/>
<path d="M75.0508 43.9668L98.4589 47.0638L97.5339 53.6196L74.4073 54.5447C70.5461 53.9816 67.8112 50.9651 69.058 47.2649C70.0635 44.4494 72.0745 43.5244 75.0508 43.9668Z" fill="#D59395"/>
<path d="M96.7295 47.9083L106.02 43.5645C106.945 43.1221 108.031 43.3634 108.675 44.1276L111.41 47.5865C112.094 48.3105 112.254 49.3964 111.852 50.3215L111.41 51.327C111.209 51.7694 110.887 52.1716 110.485 52.4531L109.198 53.2978C108.514 53.7804 107.589 53.7 106.986 53.0967L106.061 52.2118L102.039 53.6195C102.039 53.6195 99.022 55.0674 95.5631 52.614L96.7295 47.9083Z" fill="#D59395"/>
<path d="M103.647 49.316L101.677 50.5226C100.51 51.5683 100.47 53.3782 101.596 54.4642C102.682 55.4697 104.371 55.3892 105.337 54.3033L107.187 52.9358C108.152 51.8901 108.072 50.2813 107.026 49.316C106.061 48.5116 104.613 48.4714 103.647 49.316Z" fill="#070924"/>
<path d="M87.5593 88.3701L97.1719 89.1343L97.1317 98.2241L87.9213 98.3447L87.5593 88.3701Z" fill="white"/>
<path d="M87.1168 97.3391L87.2375 106.389L110.726 106.147C110.726 106.147 110.726 102.246 105.94 101.602C101.154 100.959 100.027 101.281 98.9415 99.8327C98.3382 99.0283 98.1371 97.9424 98.1371 97.1782C98.0969 96.7358 97.7349 96.3738 97.2925 96.3738L87.9614 96.4944C87.4788 96.4944 87.1168 96.8564 87.1168 97.3391Z" fill="#070924"/>
<path d="M86.3667 107.894L111.663 107.616L111.646 106.088L86.3499 106.365L86.3667 107.894Z" fill="#070924"/>
<path d="M96.6892 99.3097C96.6892 99.5108 96.8501 99.6717 97.0512 99.6717C97.2523 99.6717 97.4132 99.5108 97.4132 99.3097C97.4132 99.1086 97.2523 98.9478 97.0512 98.9478C96.8501 98.9478 96.6892 99.1086 96.6892 99.3097Z" fill="#DBDADB"/>
<path d="M97.8154 100.878C97.8154 101.079 97.9763 101.24 98.1774 101.24C98.3785 101.24 98.5393 101.079 98.5393 100.878C98.5393 100.677 98.3785 100.516 98.1774 100.516C97.9763 100.516 97.8154 100.677 97.8154 100.878Z" fill="#DBDADB"/>
<path d="M99.8666 101.844C99.8666 102.045 100.027 102.206 100.229 102.206C100.43 102.206 100.591 102.045 100.591 101.844C100.591 101.643 100.43 101.482 100.229 101.482C100.027 101.482 99.8666 101.643 99.8666 101.844Z" fill="#DBDADB"/>
<path d="M102.24 102.165C102.24 102.367 102.401 102.527 102.602 102.527C102.803 102.527 102.964 102.367 102.964 102.165C102.964 101.964 102.803 101.803 102.602 101.803C102.401 101.803 102.24 101.964 102.24 102.165Z" fill="#DBDADB"/>
<path d="M87.2375 106.348L110.686 106.107" stroke="white" stroke-width="0.6077" stroke-miterlimit="10"/>
<path d="M99.7058 65.7261H85.2667V92.5931H99.7058V65.7261Z" fill="#3D5FB5"/>
<path d="M101.435 87.4451H83.8188V92.5932H101.435V87.4451Z" fill="#365598"/>
<path d="M57.3941 58.4863C57.3941 58.4863 52.2057 73.2471 66.3632 73.2471H92.3052C96.3675 73.2471 99.6655 69.9491 99.6655 65.8868C99.6655 61.8246 96.3675 58.5266 92.3052 58.5266H57.3941V58.4863Z" fill="#3D5FB5"/>
<path d="M85.2667 73.5288H89.9725" stroke="#070924" stroke-width="1.0747" stroke-miterlimit="10"/>
</svg>
